<?xml version="1.0" encoding="utf-8" standalone="no"?>
<!DOCTYPE svg PUBLIC "-//W3C//DTD SVG 1.1//EN"
  "http://www.w3.org/Graphics/SVG/1.1/DTD/svg11.dtd">
<!-- Created with matplotlib (https://matplotlib.org/) -->
<svg height="345.6pt" version="1.1" viewBox="0 0 460.8 345.6" width="460.8pt" xmlns="http://www.w3.org/2000/svg" xmlns:xlink="http://www.w3.org/1999/xlink">
 <defs>
  <style type="text/css">
*{stroke-linecap:butt;stroke-linejoin:round;}
  </style>
 </defs>
 <g id="figure_1">
  <g id="patch_1">
   <path d="M 0 345.6 
L 460.8 345.6 
L 460.8 0 
L 0 0 
z
" style="fill:#ffffff;"/>
  </g>
  <g id="axes_1">
   <g id="patch_2">
    <path d="M 33.64 317.72 
L 450 317.72 
L 450 26.88 
L 33.64 26.88 
z
" style="fill:#ffffff;"/>
   </g>
   <g id="PathCollection_1">
    <defs>
     <path d="M 0 0.707107 
C 0.187527 0.707107 0.367398 0.632602 0.5 0.5 
C 0.632602 0.367398 0.707107 0.187527 0.707107 0 
C 0.707107 -0.187527 0.632602 -0.367398 0.5 -0.5 
C 0.367398 -0.632602 0.187527 -0.707107 0 -0.707107 
C -0.187527 -0.707107 -0.367398 -0.632602 -0.5 -0.5 
C -0.632602 -0.367398 -0.707107 -0.187527 -0.707107 0 
C -0.707107 0.187527 -0.632602 0.367398 -0.5 0.5 
C -0.367398 0.632602 -0.187527 0.707107 0 0.707107 
z
" id="ma7e09cdebd" style="stroke:#ff0000;"/>
    </defs>
    <g clip-path="url(#p82cc73168c)">
     <use style="fill:#ff0000;stroke:#ff0000;" x="52.565455" xlink:href="#ma7e09cdebd" y="299.14494"/>
     <use style="fill:#ff0000;stroke:#ff0000;" x="56.388779" xlink:href="#ma7e09cdebd" y="299.137894"/>
     <use style="fill:#ff0000;stroke:#ff0000;" x="60.212103" xlink:href="#ma7e09cdebd" y="299.117858"/>
     <use style="fill:#ff0000;stroke:#ff0000;" x="64.035427" xlink:href="#ma7e09cdebd" y="299.083069"/>
     <use style="fill:#ff0000;stroke:#ff0000;" x="67.858751" xlink:href="#ma7e09cdebd" y="299.034849"/>
     <use style="fill:#ff0000;stroke:#ff0000;" x="71.682075" xlink:href="#ma7e09cdebd" y="298.978043"/>
     <use style="fill:#ff0000;stroke:#ff0000;" x="75.505399" xlink:href="#ma7e09cdebd" y="298.790448"/>
     <use style="fill:#ff0000;stroke:#ff0000;" x="79.328724" xlink:href="#ma7e09cdebd" y="298.748834"/>
     <use style="fill:#ff0000;stroke:#ff0000;" x="83.152048" xlink:href="#ma7e09cdebd" y="298.601092"/>
     <use style="fill:#ff0000;stroke:#ff0000;" x="86.975372" xlink:href="#ma7e09cdebd" y="298.485717"/>
     <use style="fill:#ff0000;stroke:#ff0000;" x="90.798696" xlink:href="#ma7e09cdebd" y="298.338709"/>
     <use style="fill:#ff0000;stroke:#ff0000;" x="94.62202" xlink:href="#ma7e09cdebd" y="298.01152"/>
     <use style="fill:#ff0000;stroke:#ff0000;" x="98.445344" xlink:href="#ma7e09cdebd" y="297.800219"/>
     <use style="fill:#ff0000;stroke:#ff0000;" x="102.268669" xlink:href="#ma7e09cdebd" y="297.527488"/>
     <use style="fill:#ff0000;stroke:#ff0000;" x="106.091993" xlink:href="#ma7e09cdebd" y="297.278022"/>
     <use style="fill:#ff0000;stroke:#ff0000;" x="109.915317" xlink:href="#ma7e09cdebd" y="297.077951"/>
     <use style="fill:#ff0000;stroke:#ff0000;" x="113.738641" xlink:href="#ma7e09cdebd" y="296.85865"/>
     <use style="fill:#ff0000;stroke:#ff0000;" x="117.561965" xlink:href="#ma7e09cdebd" y="296.709147"/>
     <use style="fill:#ff0000;stroke:#ff0000;" x="121.385289" xlink:href="#ma7e09cdebd" y="296.540195"/>
     <use style="fill:#ff0000;stroke:#ff0000;" x="125.208613" xlink:href="#ma7e09cdebd" y="296.407866"/>
     <use style="fill:#ff0000;stroke:#ff0000;" x="129.031938" xlink:href="#ma7e09cdebd" y="296.319573"/>
     <use style="fill:#ff0000;stroke:#ff0000;" x="132.855262" xlink:href="#ma7e09cdebd" y="296.323463"/>
     <use style="fill:#ff0000;stroke:#ff0000;" x="136.678586" xlink:href="#ma7e09cdebd" y="295.314372"/>
     <use style="fill:#ff0000;stroke:#ff0000;" x="140.50191" xlink:href="#ma7e09cdebd" y="294.976614"/>
     <use style="fill:#ff0000;stroke:#ff0000;" x="144.325234" xlink:href="#ma7e09cdebd" y="294.927807"/>
     <use style="fill:#ff0000;stroke:#ff0000;" x="148.148558" xlink:href="#ma7e09cdebd" y="294.882303"/>
     <use style="fill:#ff0000;stroke:#ff0000;" x="151.971882" xlink:href="#ma7e09cdebd" y="294.866303"/>
     <use style="fill:#ff0000;stroke:#ff0000;" x="155.795207" xlink:href="#ma7e09cdebd" y="294.868505"/>
     <use style="fill:#ff0000;stroke:#ff0000;" x="159.618531" xlink:href="#ma7e09cdebd" y="294.969861"/>
     <use style="fill:#ff0000;stroke:#ff0000;" x="163.441855" xlink:href="#ma7e09cdebd" y="295.088979"/>
     <use style="fill:#ff0000;stroke:#ff0000;" x="167.265179" xlink:href="#ma7e09cdebd" y="295.095952"/>
     <use style="fill:#ff0000;stroke:#ff0000;" x="171.088503" xlink:href="#ma7e09cdebd" y="295.275767"/>
     <use style="fill:#ff0000;stroke:#ff0000;" x="174.911827" xlink:href="#ma7e09cdebd" y="295.285528"/>
     <use style="fill:#ff0000;stroke:#ff0000;" x="178.735152" xlink:href="#ma7e09cdebd" y="295.387545"/>
     <use style="fill:#ff0000;stroke:#ff0000;" x="182.558476" xlink:href="#ma7e09cdebd" y="295.527874"/>
     <use style="fill:#ff0000;stroke:#ff0000;" x="186.3818" xlink:href="#ma7e09cdebd" y="295.642295"/>
     <use style="fill:#ff0000;stroke:#ff0000;" x="190.205124" xlink:href="#ma7e09cdebd" y="295.758184"/>
     <use style="fill:#ff0000;stroke:#ff0000;" x="194.028448" xlink:href="#ma7e09cdebd" y="295.914219"/>
     <use style="fill:#ff0000;stroke:#ff0000;" x="197.851772" xlink:href="#ma7e09cdebd" y="296.005301"/>
     <use style="fill:#ff0000;stroke:#ff0000;" x="201.675096" xlink:href="#ma7e09cdebd" y="296.051612"/>
     <use style="fill:#ff0000;stroke:#ff0000;" x="205.498421" xlink:href="#ma7e09cdebd" y="296.127795"/>
     <use style="fill:#ff0000;stroke:#ff0000;" x="209.321745" xlink:href="#ma7e09cdebd" y="296.140052"/>
     <use style="fill:#ff0000;stroke:#ff0000;" x="213.145069" xlink:href="#ma7e09cdebd" y="296.195538"/>
     <use style="fill:#ff0000;stroke:#ff0000;" x="216.968393" xlink:href="#ma7e09cdebd" y="296.192161"/>
     <use style="fill:#ff0000;stroke:#ff0000;" x="220.791717" xlink:href="#ma7e09cdebd" y="296.064897"/>
     <use style="fill:#ff0000;stroke:#ff0000;" x="224.615041" xlink:href="#ma7e09cdebd" y="295.958109"/>
     <use style="fill:#ff0000;stroke:#ff0000;" x="228.438365" xlink:href="#ma7e09cdebd" y="295.855798"/>
     <use style="fill:#ff0000;stroke:#ff0000;" x="232.26169" xlink:href="#ma7e09cdebd" y="295.724937"/>
     <use style="fill:#ff0000;stroke:#ff0000;" x="236.085014" xlink:href="#ma7e09cdebd" y="295.516058"/>
     <use style="fill:#ff0000;stroke:#ff0000;" x="239.908338" xlink:href="#ma7e09cdebd" y="295.200244"/>
     <use style="fill:#ff0000;stroke:#ff0000;" x="243.731662" xlink:href="#ma7e09cdebd" y="295.123108"/>
     <use style="fill:#ff0000;stroke:#ff0000;" x="247.554986" xlink:href="#ma7e09cdebd" y="294.077833"/>
     <use style="fill:#ff0000;stroke:#ff0000;" x="251.37831" xlink:href="#ma7e09cdebd" y="293.482757"/>
     <use style="fill:#ff0000;stroke:#ff0000;" x="255.201635" xlink:href="#ma7e09cdebd" y="292.945367"/>
     <use style="fill:#ff0000;stroke:#ff0000;" x="259.024959" xlink:href="#ma7e09cdebd" y="292.110146"/>
     <use style="fill:#ff0000;stroke:#ff0000;" x="262.848283" xlink:href="#ma7e09cdebd" y="291.229641"/>
     <use style="fill:#ff0000;stroke:#ff0000;" x="266.671607" xlink:href="#ma7e09cdebd" y="290.171376"/>
     <use style="fill:#ff0000;stroke:#ff0000;" x="270.494931" xlink:href="#ma7e09cdebd" y="288.340054"/>
     <use style="fill:#ff0000;stroke:#ff0000;" x="274.318255" xlink:href="#ma7e09cdebd" y="286.449357"/>
     <use style="fill:#ff0000;stroke:#ff0000;" x="278.141579" xlink:href="#ma7e09cdebd" y="284.515211"/>
     <use style="fill:#ff0000;stroke:#ff0000;" x="281.964904" xlink:href="#ma7e09cdebd" y="282.712586"/>
     <use style="fill:#ff0000;stroke:#ff0000;" x="285.788228" xlink:href="#ma7e09cdebd" y="279.85199"/>
     <use style="fill:#ff0000;stroke:#ff0000;" x="289.611552" xlink:href="#ma7e09cdebd" y="277.793955"/>
     <use style="fill:#ff0000;stroke:#ff0000;" x="293.434876" xlink:href="#ma7e09cdebd" y="274.76536"/>
     <use style="fill:#ff0000;stroke:#ff0000;" x="297.2582" xlink:href="#ma7e09cdebd" y="271.037984"/>
     <use style="fill:#ff0000;stroke:#ff0000;" x="301.081524" xlink:href="#ma7e09cdebd" y="267.243011"/>
     <use style="fill:#ff0000;stroke:#ff0000;" x="304.904848" xlink:href="#ma7e09cdebd" y="263.173473"/>
     <use style="fill:#ff0000;stroke:#ff0000;" x="308.728173" xlink:href="#ma7e09cdebd" y="259.760148"/>
     <use style="fill:#ff0000;stroke:#ff0000;" x="312.551497" xlink:href="#ma7e09cdebd" y="256.596289"/>
     <use style="fill:#ff0000;stroke:#ff0000;" x="316.374821" xlink:href="#ma7e09cdebd" y="252.405137"/>
     <use style="fill:#ff0000;stroke:#ff0000;" x="320.198145" xlink:href="#ma7e09cdebd" y="248.348443"/>
     <use style="fill:#ff0000;stroke:#ff0000;" x="324.021469" xlink:href="#ma7e09cdebd" y="244.120887"/>
     <use style="fill:#ff0000;stroke:#ff0000;" x="327.844793" xlink:href="#ma7e09cdebd" y="239.6355"/>
     <use style="fill:#ff0000;stroke:#ff0000;" x="331.668118" xlink:href="#ma7e09cdebd" y="234.107773"/>
     <use style="fill:#ff0000;stroke:#ff0000;" x="335.491442" xlink:href="#ma7e09cdebd" y="229.991924"/>
     <use style="fill:#ff0000;stroke:#ff0000;" x="339.314766" xlink:href="#ma7e09cdebd" y="226.22741"/>
     <use style="fill:#ff0000;stroke:#ff0000;" x="343.13809" xlink:href="#ma7e09cdebd" y="222.546271"/>
     <use style="fill:#ff0000;stroke:#ff0000;" x="346.961414" xlink:href="#ma7e09cdebd" y="218.881866"/>
     <use style="fill:#ff0000;stroke:#ff0000;" x="350.784738" xlink:href="#ma7e09cdebd" y="215.078967"/>
     <use style="fill:#ff0000;stroke:#ff0000;" x="354.608062" xlink:href="#ma7e09cdebd" y="210.14852"/>
    </g>
   </g>
   <g id="matplotlib.axis_1">
    <g id="xtick_1">
     <g id="line2d_1">
      <defs>
       <path d="M 0 0 
L 0 3.5 
" id="m62a8bd8e7f" style="stroke:#000000;stroke-width:0.8;"/>
      </defs>
      <g>
       <use style="stroke:#000000;stroke-width:0.8;" x="52.565455" xlink:href="#m62a8bd8e7f" y="317.72"/>
      </g>
     </g>
     <g id="text_1">
      <!-- 1/22/20 -->
      <defs>
       <path d="M 12.40625 8.296875 
L 28.515625 8.296875 
L 28.515625 63.921875 
L 10.984375 60.40625 
L 10.984375 69.390625 
L 28.421875 72.90625 
L 38.28125 72.90625 
L 38.28125 8.296875 
L 54.390625 8.296875 
L 54.390625 0 
L 12.40625 0 
z
" id="DejaVuSans-49"/>
       <path d="M 25.390625 72.90625 
L 33.6875 72.90625 
L 8.296875 -9.28125 
L 0 -9.28125 
z
" id="DejaVuSans-47"/>
       <path d="M 19.1875 8.296875 
L 53.609375 8.296875 
L 53.609375 0 
L 7.328125 0 
L 7.328125 8.296875 
Q 12.9375 14.109375 22.625 23.890625 
Q 32.328125 33.6875 34.8125 36.53125 
Q 39.546875 41.84375 41.421875 45.53125 
Q 43.3125 49.21875 43.3125 52.78125 
Q 43.3125 58.59375 39.234375 62.25 
Q 35.15625 65.921875 28.609375 65.921875 
Q 23.96875 65.921875 18.8125 64.3125 
Q 13.671875 62.703125 7.8125 59.421875 
L 7.8125 69.390625 
Q 13.765625 71.78125 18.9375 73 
Q 24.125 74.21875 28.421875 74.21875 
Q 39.75 74.21875 46.484375 68.546875 
Q 53.21875 62.890625 53.21875 53.421875 
Q 53.21875 48.921875 51.53125 44.890625 
Q 49.859375 40.875 45.40625 35.40625 
Q 44.1875 33.984375 37.640625 27.21875 
Q 31.109375 20.453125 19.1875 8.296875 
z
" id="DejaVuSans-50"/>
       <path d="M 31.78125 66.40625 
Q 24.171875 66.40625 20.328125 58.90625 
Q 16.5 51.421875 16.5 36.375 
Q 16.5 21.390625 20.328125 13.890625 
Q 24.171875 6.390625 31.78125 6.390625 
Q 39.453125 6.390625 43.28125 13.890625 
Q 47.125 21.390625 47.125 36.375 
Q 47.125 51.421875 43.28125 58.90625 
Q 39.453125 66.40625 31.78125 66.40625 
z
M 31.78125 74.21875 
Q 44.046875 74.21875 50.515625 64.515625 
Q 56.984375 54.828125 56.984375 36.375 
Q 56.984375 17.96875 50.515625 8.265625 
Q 44.046875 -1.421875 31.78125 -1.421875 
Q 19.53125 -1.421875 13.0625 8.265625 
Q 6.59375 17.96875 6.59375 36.375 
Q 6.59375 54.828125 13.0625 64.515625 
Q 19.53125 74.21875 31.78125 74.21875 
z
" id="DejaVuSans-48"/>
      </defs>
      <g transform="translate(33.290455 332.318437)scale(0.1 -0.1)">
       <use xlink:href="#DejaVuSans-49"/>
       <use x="63.623047" xlink:href="#DejaVuSans-47"/>
       <use x="97.314453" xlink:href="#DejaVuSans-50"/>
       <use x="160.9375" xlink:href="#DejaVuSans-50"/>
       <use x="224.560547" xlink:href="#DejaVuSans-47"/>
       <use x="258.251953" xlink:href="#DejaVuSans-50"/>
       <use x="321.875" xlink:href="#DejaVuSans-48"/>
      </g>
     </g>
    </g>
    <g id="xtick_2">
     <g id="line2d_2">
      <g>
       <use style="stroke:#000000;stroke-width:0.8;" x="129.031938" xlink:href="#m62a8bd8e7f" y="317.72"/>
      </g>
     </g>
     <g id="text_2">
      <!-- 2/11/20 -->
      <g transform="translate(109.756938 332.318437)scale(0.1 -0.1)">
       <use xlink:href="#DejaVuSans-50"/>
       <use x="63.623047" xlink:href="#DejaVuSans-47"/>
       <use x="97.314453" xlink:href="#DejaVuSans-49"/>
       <use x="160.9375" xlink:href="#DejaVuSans-49"/>
       <use x="224.560547" xlink:href="#DejaVuSans-47"/>
       <use x="258.251953" xlink:href="#DejaVuSans-50"/>
       <use x="321.875" xlink:href="#DejaVuSans-48"/>
      </g>
     </g>
    </g>
    <g id="xtick_3">
     <g id="line2d_3">
      <g>
       <use style="stroke:#000000;stroke-width:0.8;" x="205.498421" xlink:href="#m62a8bd8e7f" y="317.72"/>
      </g>
     </g>
     <g id="text_3">
      <!-- 3/2/20 -->
      <defs>
       <path d="M 40.578125 39.3125 
Q 47.65625 37.796875 51.625 33 
Q 55.609375 28.21875 55.609375 21.1875 
Q 55.609375 10.40625 48.1875 4.484375 
Q 40.765625 -1.421875 27.09375 -1.421875 
Q 22.515625 -1.421875 17.65625 -0.515625 
Q 12.796875 0.390625 7.625 2.203125 
L 7.625 11.71875 
Q 11.71875 9.328125 16.59375 8.109375 
Q 21.484375 6.890625 26.8125 6.890625 
Q 36.078125 6.890625 40.9375 10.546875 
Q 45.796875 14.203125 45.796875 21.1875 
Q 45.796875 27.640625 41.28125 31.265625 
Q 36.765625 34.90625 28.71875 34.90625 
L 20.21875 34.90625 
L 20.21875 43.015625 
L 29.109375 43.015625 
Q 36.375 43.015625 40.234375 45.921875 
Q 44.09375 48.828125 44.09375 54.296875 
Q 44.09375 59.90625 40.109375 62.90625 
Q 36.140625 65.921875 28.71875 65.921875 
Q 24.65625 65.921875 20.015625 65.03125 
Q 15.375 64.15625 9.8125 62.3125 
L 9.8125 71.09375 
Q 15.4375 72.65625 20.34375 73.4375 
Q 25.25 74.21875 29.59375 74.21875 
Q 40.828125 74.21875 47.359375 69.109375 
Q 53.90625 64.015625 53.90625 55.328125 
Q 53.90625 49.265625 50.4375 45.09375 
Q 46.96875 40.921875 40.578125 39.3125 
z
" id="DejaVuSans-51"/>
      </defs>
      <g transform="translate(189.404671 332.318437)scale(0.1 -0.1)">
       <use xlink:href="#DejaVuSans-51"/>
       <use x="63.623047" xlink:href="#DejaVuSans-47"/>
       <use x="97.314453" xlink:href="#DejaVuSans-50"/>
       <use x="160.9375" xlink:href="#DejaVuSans-47"/>
       <use x="194.628906" xlink:href="#DejaVuSans-50"/>
       <use x="258.251953" xlink:href="#DejaVuSans-48"/>
      </g>
     </g>
    </g>
    <g id="xtick_4">
     <g id="line2d_4">
      <g>
       <use style="stroke:#000000;stroke-width:0.8;" x="281.964904" xlink:href="#m62a8bd8e7f" y="317.72"/>
      </g>
     </g>
     <g id="text_4">
      <!-- 3/22/20 -->
      <g transform="translate(262.689904 332.318437)scale(0.1 -0.1)">
       <use xlink:href="#DejaVuSans-51"/>
       <use x="63.623047" xlink:href="#DejaVuSans-47"/>
       <use x="97.314453" xlink:href="#DejaVuSans-50"/>
       <use x="160.9375" xlink:href="#DejaVuSans-50"/>
       <use x="224.560547" xlink:href="#DejaVuSans-47"/>
       <use x="258.251953" xlink:href="#DejaVuSans-50"/>
       <use x="321.875" xlink:href="#DejaVuSans-48"/>
      </g>
     </g>
    </g>
    <g id="xtick_5">
     <g id="line2d_5">
      <g>
       <use style="stroke:#000000;stroke-width:0.8;" x="358.431387" xlink:href="#m62a8bd8e7f" y="317.72"/>
      </g>
     </g>
     <g id="text_5">
      <!-- 04/11/20 -->
      <defs>
       <path d="M 37.796875 64.3125 
L 12.890625 25.390625 
L 37.796875 25.390625 
z
M 35.203125 72.90625 
L 47.609375 72.90625 
L 47.609375 25.390625 
L 58.015625 25.390625 
L 58.015625 17.1875 
L 47.609375 17.1875 
L 47.609375 0 
L 37.796875 0 
L 37.796875 17.1875 
L 4.890625 17.1875 
L 4.890625 26.703125 
z
" id="DejaVuSans-52"/>
      </defs>
      <g transform="translate(335.975137 332.318437)scale(0.1 -0.1)">
       <use xlink:href="#DejaVuSans-48"/>
       <use x="63.623047" xlink:href="#DejaVuSans-52"/>
       <use x="127.246094" xlink:href="#DejaVuSans-47"/>
       <use x="160.9375" xlink:href="#DejaVuSans-49"/>
       <use x="224.560547" xlink:href="#DejaVuSans-49"/>
       <use x="288.183594" xlink:href="#DejaVuSans-47"/>
       <use x="321.875" xlink:href="#DejaVuSans-50"/>
       <use x="385.498047" xlink:href="#DejaVuSans-48"/>
      </g>
     </g>
    </g>
   </g>
   <g id="matplotlib.axis_2">
    <g id="ytick_1">
     <g id="line2d_6">
      <defs>
       <path d="M 0 0 
L -3.5 0 
" id="mcd0823667f" style="stroke:#000000;stroke-width:0.8;"/>
      </defs>
      <g>
       <use style="stroke:#000000;stroke-width:0.8;" x="33.64" xlink:href="#mcd0823667f" y="299.182371"/>
      </g>
     </g>
     <g id="text_6">
      <!-- 0.0 -->
      <defs>
       <path d="M 10.6875 12.40625 
L 21 12.40625 
L 21 0 
L 10.6875 0 
z
" id="DejaVuSans-46"/>
      </defs>
      <g transform="translate(10.736875 302.98159)scale(0.1 -0.1)">
       <use xlink:href="#DejaVuSans-48"/>
       <use x="63.623047" xlink:href="#DejaVuSans-46"/>
       <use x="95.410156" xlink:href="#DejaVuSans-48"/>
      </g>
     </g>
    </g>
    <g id="ytick_2">
     <g id="line2d_7">
      <g>
       <use style="stroke:#000000;stroke-width:0.8;" x="33.64" xlink:href="#mcd0823667f" y="262.48548"/>
      </g>
     </g>
     <g id="text_7">
      <!-- 0.5 -->
      <defs>
       <path d="M 10.796875 72.90625 
L 49.515625 72.90625 
L 49.515625 64.59375 
L 19.828125 64.59375 
L 19.828125 46.734375 
Q 21.96875 47.46875 24.109375 47.828125 
Q 26.265625 48.1875 28.421875 48.1875 
Q 40.625 48.1875 47.75 41.5 
Q 54.890625 34.8125 54.890625 23.390625 
Q 54.890625 11.625 47.5625 5.09375 
Q 40.234375 -1.421875 26.90625 -1.421875 
Q 22.3125 -1.421875 17.546875 -0.640625 
Q 12.796875 0.140625 7.71875 1.703125 
L 7.71875 11.625 
Q 12.109375 9.234375 16.796875 8.0625 
Q 21.484375 6.890625 26.703125 6.890625 
Q 35.15625 6.890625 40.078125 11.328125 
Q 45.015625 15.765625 45.015625 23.390625 
Q 45.015625 31 40.078125 35.4375 
Q 35.15625 39.890625 26.703125 39.890625 
Q 22.75 39.890625 18.8125 39.015625 
Q 14.890625 38.140625 10.796875 36.28125 
z
" id="DejaVuSans-53"/>
      </defs>
      <g transform="translate(10.736875 266.284698)scale(0.1 -0.1)">
       <use xlink:href="#DejaVuSans-48"/>
       <use x="63.623047" xlink:href="#DejaVuSans-46"/>
       <use x="95.410156" xlink:href="#DejaVuSans-53"/>
      </g>
     </g>
    </g>
    <g id="ytick_3">
     <g id="line2d_8">
      <g>
       <use style="stroke:#000000;stroke-width:0.8;" x="33.64" xlink:href="#mcd0823667f" y="225.788588"/>
      </g>
     </g>
     <g id="text_8">
      <!-- 1.0 -->
      <g transform="translate(10.736875 229.587807)scale(0.1 -0.1)">
       <use xlink:href="#DejaVuSans-49"/>
       <use x="63.623047" xlink:href="#DejaVuSans-46"/>
       <use x="95.410156" xlink:href="#DejaVuSans-48"/>
      </g>
     </g>
    </g>
    <g id="ytick_4">
     <g id="line2d_9">
      <g>
       <use style="stroke:#000000;stroke-width:0.8;" x="33.64" xlink:href="#mcd0823667f" y="189.091697"/>
      </g>
     </g>
     <g id="text_9">
      <!-- 1.5 -->
      <g transform="translate(10.736875 192.890916)scale(0.1 -0.1)">
       <use xlink:href="#DejaVuSans-49"/>
       <use x="63.623047" xlink:href="#DejaVuSans-46"/>
       <use x="95.410156" xlink:href="#DejaVuSans-53"/>
      </g>
     </g>
    </g>
    <g id="ytick_5">
     <g id="line2d_10">
      <g>
       <use style="stroke:#000000;stroke-width:0.8;" x="33.64" xlink:href="#mcd0823667f" y="152.394806"/>
      </g>
     </g>
     <g id="text_10">
      <!-- 2.0 -->
      <g transform="translate(10.736875 156.194024)scale(0.1 -0.1)">
       <use xlink:href="#DejaVuSans-50"/>
       <use x="63.623047" xlink:href="#DejaVuSans-46"/>
       <use x="95.410156" xlink:href="#DejaVuSans-48"/>
      </g>
     </g>
    </g>
    <g id="ytick_6">
     <g id="line2d_11">
      <g>
       <use style="stroke:#000000;stroke-width:0.8;" x="33.64" xlink:href="#mcd0823667f" y="115.697914"/>
      </g>
     </g>
     <g id="text_11">
      <!-- 2.5 -->
      <g transform="translate(10.736875 119.497133)scale(0.1 -0.1)">
       <use xlink:href="#DejaVuSans-50"/>
       <use x="63.623047" xlink:href="#DejaVuSans-46"/>
       <use x="95.410156" xlink:href="#DejaVuSans-53"/>
      </g>
     </g>
    </g>
    <g id="ytick_7">
     <g id="line2d_12">
      <g>
       <use style="stroke:#000000;stroke-width:0.8;" x="33.64" xlink:href="#mcd0823667f" y="79.001023"/>
      </g>
     </g>
     <g id="text_12">
      <!-- 3.0 -->
      <g transform="translate(10.736875 82.800242)scale(0.1 -0.1)">
       <use xlink:href="#DejaVuSans-51"/>
       <use x="63.623047" xlink:href="#DejaVuSans-46"/>
       <use x="95.410156" xlink:href="#DejaVuSans-48"/>
      </g>
     </g>
    </g>
    <g id="ytick_8">
     <g id="line2d_13">
      <g>
       <use style="stroke:#000000;stroke-width:0.8;" x="33.64" xlink:href="#mcd0823667f" y="42.304132"/>
      </g>
     </g>
     <g id="text_13">
      <!-- 3.5 -->
      <g transform="translate(10.736875 46.10335)scale(0.1 -0.1)">
       <use xlink:href="#DejaVuSans-51"/>
       <use x="63.623047" xlink:href="#DejaVuSans-46"/>
       <use x="95.410156" xlink:href="#DejaVuSans-53"/>
      </g>
     </g>
    </g>
    <g id="text_14">
     <!-- 1e6 -->
     <defs>
      <path d="M 56.203125 29.59375 
L 56.203125 25.203125 
L 14.890625 25.203125 
Q 15.484375 15.921875 20.484375 11.0625 
Q 25.484375 6.203125 34.421875 6.203125 
Q 39.59375 6.203125 44.453125 7.46875 
Q 49.3125 8.734375 54.109375 11.28125 
L 54.109375 2.78125 
Q 49.265625 0.734375 44.1875 -0.34375 
Q 39.109375 -1.421875 33.890625 -1.421875 
Q 20.796875 -1.421875 13.15625 6.1875 
Q 5.515625 13.8125 5.515625 26.8125 
Q 5.515625 40.234375 12.765625 48.109375 
Q 20.015625 56 32.328125 56 
Q 43.359375 56 49.78125 48.890625 
Q 56.203125 41.796875 56.203125 29.59375 
z
M 47.21875 32.234375 
Q 47.125 39.59375 43.09375 43.984375 
Q 39.0625 48.390625 32.421875 48.390625 
Q 24.90625 48.390625 20.390625 44.140625 
Q 15.875 39.890625 15.1875 32.171875 
z
" id="DejaVuSans-101"/>
      <path d="M 33.015625 40.375 
Q 26.375 40.375 22.484375 35.828125 
Q 18.609375 31.296875 18.609375 23.390625 
Q 18.609375 15.53125 22.484375 10.953125 
Q 26.375 6.390625 33.015625 6.390625 
Q 39.65625 6.390625 43.53125 10.953125 
Q 47.40625 15.53125 47.40625 23.390625 
Q 47.40625 31.296875 43.53125 35.828125 
Q 39.65625 40.375 33.015625 40.375 
z
M 52.59375 71.296875 
L 52.59375 62.3125 
Q 48.875 64.0625 45.09375 64.984375 
Q 41.3125 65.921875 37.59375 65.921875 
Q 27.828125 65.921875 22.671875 59.328125 
Q 17.53125 52.734375 16.796875 39.40625 
Q 19.671875 43.65625 24.015625 45.921875 
Q 28.375 48.1875 33.59375 48.1875 
Q 44.578125 48.1875 50.953125 41.515625 
Q 57.328125 34.859375 57.328125 23.390625 
Q 57.328125 12.15625 50.6875 5.359375 
Q 44.046875 -1.421875 33.015625 -1.421875 
Q 20.359375 -1.421875 13.671875 8.265625 
Q 6.984375 17.96875 6.984375 36.375 
Q 6.984375 53.65625 15.1875 63.9375 
Q 23.390625 74.21875 37.203125 74.21875 
Q 40.921875 74.21875 44.703125 73.484375 
Q 48.484375 72.75 52.59375 71.296875 
z
" id="DejaVuSans-54"/>
     </defs>
     <g transform="translate(33.64 23.88)scale(0.1 -0.1)">
      <use xlink:href="#DejaVuSans-49"/>
      <use x="63.623047" xlink:href="#DejaVuSans-101"/>
      <use x="125.146484" xlink:href="#DejaVuSans-54"/>
     </g>
    </g>
   </g>
   <g id="line2d_14">
    <path clip-path="url(#p82cc73168c)" d="M 52.565455 304.5 
L 56.388779 303.126637 
L 60.212103 301.873199 
L 64.035427 300.735157 
L 67.858751 299.707985 
L 71.682075 298.787154 
L 75.505399 297.968136 
L 79.328724 297.246404 
L 83.152048 296.617429 
L 86.975372 296.076684 
L 90.798696 295.619641 
L 94.62202 295.241772 
L 98.445344 294.938549 
L 102.268669 294.705444 
L 106.091993 294.537929 
L 109.915317 294.431477 
L 113.738641 294.38156 
L 117.561965 294.383649 
L 121.385289 294.433217 
L 125.208613 294.525736 
L 129.031938 294.656678 
L 132.855262 294.821516 
L 136.678586 295.015721 
L 140.50191 295.234765 
L 144.325234 295.474121 
L 148.148558 295.729261 
L 151.971882 295.995656 
L 155.795207 296.26878 
L 159.618531 296.544103 
L 163.441855 296.817099 
L 167.265179 297.08324 
L 171.088503 297.337996 
L 174.911827 297.576842 
L 178.735152 297.795248 
L 182.558476 297.988687 
L 186.3818 298.152631 
L 190.205124 298.282552 
L 194.028448 298.373923 
L 197.851772 298.422215 
L 201.675096 298.4229 
L 205.498421 298.371451 
L 209.321745 298.26334 
L 213.145069 298.094039 
L 216.968393 297.85902 
L 220.791717 297.553754 
L 224.615041 297.173716 
L 228.438365 296.714375 
L 232.26169 296.171205 
L 236.085014 295.539678 
L 239.908338 294.815266 
L 243.731662 293.99344 
L 247.554986 293.069674 
L 251.37831 292.039438 
L 255.201635 290.898206 
L 259.024959 289.64145 
L 262.848283 288.264641 
L 266.671607 286.763251 
L 270.494931 285.132754 
L 274.318255 283.36862 
L 278.141579 281.466323 
L 281.964904 279.421333 
L 285.788228 277.229124 
L 289.611552 274.885167 
L 293.434876 272.384935 
L 297.2582 269.7239 
L 301.081524 266.897533 
L 304.904848 263.901308 
L 308.728173 260.730695 
L 312.551497 257.381168 
L 316.374821 253.848198 
L 320.198145 250.127257 
L 324.021469 246.213818 
L 327.844793 242.103353 
L 331.668118 237.791333 
L 335.491442 233.273232 
L 339.314766 228.54452 
L 343.13809 223.600671 
L 346.961414 218.437156 
L 350.784738 213.049447 
L 354.608062 207.433018 
L 358.431387 201.583338 
L 362.254711 195.495882 
L 366.078035 189.166121 
L 369.901359 182.589527 
L 373.724683 175.761572 
L 377.548007 168.677728 
L 381.371331 161.333468 
L 385.194656 153.724263 
L 389.01798 145.845586 
L 392.841304 137.692909 
L 396.664628 129.261705 
L 400.487952 120.547444 
L 404.311276 111.545599 
L 408.134601 102.251643 
L 411.957925 92.661047 
L 415.781249 82.769284 
L 419.604573 72.571825 
L 423.427897 62.064144 
L 427.251221 51.241711 
L 431.074545 40.1 
" style="fill:none;stroke:#1f77b4;stroke-dasharray:5.55,2.4;stroke-dashoffset:0;stroke-width:1.5;"/>
   </g>
   <g id="patch_3">
    <path d="M 33.64 317.72 
L 33.64 26.88 
" style="fill:none;stroke:#000000;stroke-linecap:square;stroke-linejoin:miter;stroke-width:0.8;"/>
   </g>
   <g id="patch_4">
    <path d="M 450 317.72 
L 450 26.88 
" style="fill:none;stroke:#000000;stroke-linecap:square;stroke-linejoin:miter;stroke-width:0.8;"/>
   </g>
   <g id="patch_5">
    <path d="M 33.64 317.72 
L 450 317.72 
" style="fill:none;stroke:#000000;stroke-linecap:square;stroke-linejoin:miter;stroke-width:0.8;"/>
   </g>
   <g id="patch_6">
    <path d="M 33.64 26.88 
L 450 26.88 
" style="fill:none;stroke:#000000;stroke-linecap:square;stroke-linejoin:miter;stroke-width:0.8;"/>
   </g>
   <g id="text_15">
    <!-- COVID-19 Active Cases Polynomial Best Fit Line -->
    <defs>
     <path d="M 64.40625 67.28125 
L 64.40625 56.890625 
Q 59.421875 61.53125 53.78125 63.8125 
Q 48.140625 66.109375 41.796875 66.109375 
Q 29.296875 66.109375 22.65625 58.46875 
Q 16.015625 50.828125 16.015625 36.375 
Q 16.015625 21.96875 22.65625 14.328125 
Q 29.296875 6.6875 41.796875 6.6875 
Q 48.140625 6.6875 53.78125 8.984375 
Q 59.421875 11.28125 64.40625 15.921875 
L 64.40625 5.609375 
Q 59.234375 2.09375 53.4375 0.328125 
Q 47.65625 -1.421875 41.21875 -1.421875 
Q 24.65625 -1.421875 15.125 8.703125 
Q 5.609375 18.84375 5.609375 36.375 
Q 5.609375 53.953125 15.125 64.078125 
Q 24.65625 74.21875 41.21875 74.21875 
Q 47.75 74.21875 53.53125 72.484375 
Q 59.328125 70.75 64.40625 67.28125 
z
" id="DejaVuSans-67"/>
     <path d="M 39.40625 66.21875 
Q 28.65625 66.21875 22.328125 58.203125 
Q 16.015625 50.203125 16.015625 36.375 
Q 16.015625 22.609375 22.328125 14.59375 
Q 28.65625 6.59375 39.40625 6.59375 
Q 50.140625 6.59375 56.421875 14.59375 
Q 62.703125 22.609375 62.703125 36.375 
Q 62.703125 50.203125 56.421875 58.203125 
Q 50.140625 66.21875 39.40625 66.21875 
z
M 39.40625 74.21875 
Q 54.734375 74.21875 63.90625 63.9375 
Q 73.09375 53.65625 73.09375 36.375 
Q 73.09375 19.140625 63.90625 8.859375 
Q 54.734375 -1.421875 39.40625 -1.421875 
Q 24.03125 -1.421875 14.8125 8.828125 
Q 5.609375 19.09375 5.609375 36.375 
Q 5.609375 53.65625 14.8125 63.9375 
Q 24.03125 74.21875 39.40625 74.21875 
z
" id="DejaVuSans-79"/>
     <path d="M 28.609375 0 
L 0.78125 72.90625 
L 11.078125 72.90625 
L 34.1875 11.53125 
L 57.328125 72.90625 
L 67.578125 72.90625 
L 39.796875 0 
z
" id="DejaVuSans-86"/>
     <path d="M 9.8125 72.90625 
L 19.671875 72.90625 
L 19.671875 0 
L 9.8125 0 
z
" id="DejaVuSans-73"/>
     <path d="M 19.671875 64.796875 
L 19.671875 8.109375 
L 31.59375 8.109375 
Q 46.6875 8.109375 53.6875 14.9375 
Q 60.6875 21.78125 60.6875 36.53125 
Q 60.6875 51.171875 53.6875 57.984375 
Q 46.6875 64.796875 31.59375 64.796875 
z
M 9.8125 72.90625 
L 30.078125 72.90625 
Q 51.265625 72.90625 61.171875 64.09375 
Q 71.09375 55.28125 71.09375 36.53125 
Q 71.09375 17.671875 61.125 8.828125 
Q 51.171875 0 30.078125 0 
L 9.8125 0 
z
" id="DejaVuSans-68"/>
     <path d="M 4.890625 31.390625 
L 31.203125 31.390625 
L 31.203125 23.390625 
L 4.890625 23.390625 
z
" id="DejaVuSans-45"/>
     <path d="M 10.984375 1.515625 
L 10.984375 10.5 
Q 14.703125 8.734375 18.5 7.8125 
Q 22.3125 6.890625 25.984375 6.890625 
Q 35.75 6.890625 40.890625 13.453125 
Q 46.046875 20.015625 46.78125 33.40625 
Q 43.953125 29.203125 39.59375 26.953125 
Q 35.25 24.703125 29.984375 24.703125 
Q 19.046875 24.703125 12.671875 31.3125 
Q 6.296875 37.9375 6.296875 49.421875 
Q 6.296875 60.640625 12.9375 67.421875 
Q 19.578125 74.21875 30.609375 74.21875 
Q 43.265625 74.21875 49.921875 64.515625 
Q 56.59375 54.828125 56.59375 36.375 
Q 56.59375 19.140625 48.40625 8.859375 
Q 40.234375 -1.421875 26.421875 -1.421875 
Q 22.703125 -1.421875 18.890625 -0.6875 
Q 15.09375 0.046875 10.984375 1.515625 
z
M 30.609375 32.421875 
Q 37.25 32.421875 41.125 36.953125 
Q 45.015625 41.5 45.015625 49.421875 
Q 45.015625 57.28125 41.125 61.84375 
Q 37.25 66.40625 30.609375 66.40625 
Q 23.96875 66.40625 20.09375 61.84375 
Q 16.21875 57.28125 16.21875 49.421875 
Q 16.21875 41.5 20.09375 36.953125 
Q 23.96875 32.421875 30.609375 32.421875 
z
" id="DejaVuSans-57"/>
     <path id="DejaVuSans-32"/>
     <path d="M 34.1875 63.1875 
L 20.796875 26.90625 
L 47.609375 26.90625 
z
M 28.609375 72.90625 
L 39.796875 72.90625 
L 67.578125 0 
L 57.328125 0 
L 50.6875 18.703125 
L 17.828125 18.703125 
L 11.1875 0 
L 0.78125 0 
z
" id="DejaVuSans-65"/>
     <path d="M 48.78125 52.59375 
L 48.78125 44.1875 
Q 44.96875 46.296875 41.140625 47.34375 
Q 37.3125 48.390625 33.40625 48.390625 
Q 24.65625 48.390625 19.8125 42.84375 
Q 14.984375 37.3125 14.984375 27.296875 
Q 14.984375 17.28125 19.8125 11.734375 
Q 24.65625 6.203125 33.40625 6.203125 
Q 37.3125 6.203125 41.140625 7.25 
Q 44.96875 8.296875 48.78125 10.40625 
L 48.78125 2.09375 
Q 45.015625 0.34375 40.984375 -0.53125 
Q 36.96875 -1.421875 32.421875 -1.421875 
Q 20.0625 -1.421875 12.78125 6.34375 
Q 5.515625 14.109375 5.515625 27.296875 
Q 5.515625 40.671875 12.859375 48.328125 
Q 20.21875 56 33.015625 56 
Q 37.15625 56 41.109375 55.140625 
Q 45.0625 54.296875 48.78125 52.59375 
z
" id="DejaVuSans-99"/>
     <path d="M 18.3125 70.21875 
L 18.3125 54.6875 
L 36.8125 54.6875 
L 36.8125 47.703125 
L 18.3125 47.703125 
L 18.3125 18.015625 
Q 18.3125 11.328125 20.140625 9.421875 
Q 21.96875 7.515625 27.59375 7.515625 
L 36.8125 7.515625 
L 36.8125 0 
L 27.59375 0 
Q 17.1875 0 13.234375 3.875 
Q 9.28125 7.765625 9.28125 18.015625 
L 9.28125 47.703125 
L 2.6875 47.703125 
L 2.6875 54.6875 
L 9.28125 54.6875 
L 9.28125 70.21875 
z
" id="DejaVuSans-116"/>
     <path d="M 9.421875 54.6875 
L 18.40625 54.6875 
L 18.40625 0 
L 9.421875 0 
z
M 9.421875 75.984375 
L 18.40625 75.984375 
L 18.40625 64.59375 
L 9.421875 64.59375 
z
" id="DejaVuSans-105"/>
     <path d="M 2.984375 54.6875 
L 12.5 54.6875 
L 29.59375 8.796875 
L 46.6875 54.6875 
L 56.203125 54.6875 
L 35.6875 0 
L 23.484375 0 
z
" id="DejaVuSans-118"/>
     <path d="M 34.28125 27.484375 
Q 23.390625 27.484375 19.1875 25 
Q 14.984375 22.515625 14.984375 16.5 
Q 14.984375 11.71875 18.140625 8.90625 
Q 21.296875 6.109375 26.703125 6.109375 
Q 34.1875 6.109375 38.703125 11.40625 
Q 43.21875 16.703125 43.21875 25.484375 
L 43.21875 27.484375 
z
M 52.203125 31.203125 
L 52.203125 0 
L 43.21875 0 
L 43.21875 8.296875 
Q 40.140625 3.328125 35.546875 0.953125 
Q 30.953125 -1.421875 24.3125 -1.421875 
Q 15.921875 -1.421875 10.953125 3.296875 
Q 6 8.015625 6 15.921875 
Q 6 25.140625 12.171875 29.828125 
Q 18.359375 34.515625 30.609375 34.515625 
L 43.21875 34.515625 
L 43.21875 35.40625 
Q 43.21875 41.609375 39.140625 45 
Q 35.0625 48.390625 27.6875 48.390625 
Q 23 48.390625 18.546875 47.265625 
Q 14.109375 46.140625 10.015625 43.890625 
L 10.015625 52.203125 
Q 14.9375 54.109375 19.578125 55.046875 
Q 24.21875 56 28.609375 56 
Q 40.484375 56 46.34375 49.84375 
Q 52.203125 43.703125 52.203125 31.203125 
z
" id="DejaVuSans-97"/>
     <path d="M 44.28125 53.078125 
L 44.28125 44.578125 
Q 40.484375 46.53125 36.375 47.5 
Q 32.28125 48.484375 27.875 48.484375 
Q 21.1875 48.484375 17.84375 46.4375 
Q 14.5 44.390625 14.5 40.28125 
Q 14.5 37.15625 16.890625 35.375 
Q 19.28125 33.59375 26.515625 31.984375 
L 29.59375 31.296875 
Q 39.15625 29.25 43.1875 25.515625 
Q 47.21875 21.78125 47.21875 15.09375 
Q 47.21875 7.46875 41.1875 3.015625 
Q 35.15625 -1.421875 24.609375 -1.421875 
Q 20.21875 -1.421875 15.453125 -0.5625 
Q 10.6875 0.296875 5.421875 2 
L 5.421875 11.28125 
Q 10.40625 8.6875 15.234375 7.390625 
Q 20.0625 6.109375 24.8125 6.109375 
Q 31.15625 6.109375 34.5625 8.28125 
Q 37.984375 10.453125 37.984375 14.40625 
Q 37.984375 18.0625 35.515625 20.015625 
Q 33.0625 21.96875 24.703125 23.78125 
L 21.578125 24.515625 
Q 13.234375 26.265625 9.515625 29.90625 
Q 5.8125 33.546875 5.8125 39.890625 
Q 5.8125 47.609375 11.28125 51.796875 
Q 16.75 56 26.8125 56 
Q 31.78125 56 36.171875 55.265625 
Q 40.578125 54.546875 44.28125 53.078125 
z
" id="DejaVuSans-115"/>
     <path d="M 19.671875 64.796875 
L 19.671875 37.40625 
L 32.078125 37.40625 
Q 38.96875 37.40625 42.71875 40.96875 
Q 46.484375 44.53125 46.484375 51.125 
Q 46.484375 57.671875 42.71875 61.234375 
Q 38.96875 64.796875 32.078125 64.796875 
z
M 9.8125 72.90625 
L 32.078125 72.90625 
Q 44.34375 72.90625 50.609375 67.359375 
Q 56.890625 61.8125 56.890625 51.125 
Q 56.890625 40.328125 50.609375 34.8125 
Q 44.34375 29.296875 32.078125 29.296875 
L 19.671875 29.296875 
L 19.671875 0 
L 9.8125 0 
z
" id="DejaVuSans-80"/>
     <path d="M 30.609375 48.390625 
Q 23.390625 48.390625 19.1875 42.75 
Q 14.984375 37.109375 14.984375 27.296875 
Q 14.984375 17.484375 19.15625 11.84375 
Q 23.34375 6.203125 30.609375 6.203125 
Q 37.796875 6.203125 41.984375 11.859375 
Q 46.1875 17.53125 46.1875 27.296875 
Q 46.1875 37.015625 41.984375 42.703125 
Q 37.796875 48.390625 30.609375 48.390625 
z
M 30.609375 56 
Q 42.328125 56 49.015625 48.375 
Q 55.71875 40.765625 55.71875 27.296875 
Q 55.71875 13.875 49.015625 6.21875 
Q 42.328125 -1.421875 30.609375 -1.421875 
Q 18.84375 -1.421875 12.171875 6.21875 
Q 5.515625 13.875 5.515625 27.296875 
Q 5.515625 40.765625 12.171875 48.375 
Q 18.84375 56 30.609375 56 
z
" id="DejaVuSans-111"/>
     <path d="M 9.421875 75.984375 
L 18.40625 75.984375 
L 18.40625 0 
L 9.421875 0 
z
" id="DejaVuSans-108"/>
     <path d="M 32.171875 -5.078125 
Q 28.375 -14.84375 24.75 -17.8125 
Q 21.140625 -20.796875 15.09375 -20.796875 
L 7.90625 -20.796875 
L 7.90625 -13.28125 
L 13.1875 -13.28125 
Q 16.890625 -13.28125 18.9375 -11.515625 
Q 21 -9.765625 23.484375 -3.21875 
L 25.09375 0.875 
L 2.984375 54.6875 
L 12.5 54.6875 
L 29.59375 11.921875 
L 46.6875 54.6875 
L 56.203125 54.6875 
z
" id="DejaVuSans-121"/>
     <path d="M 54.890625 33.015625 
L 54.890625 0 
L 45.90625 0 
L 45.90625 32.71875 
Q 45.90625 40.484375 42.875 44.328125 
Q 39.84375 48.1875 33.796875 48.1875 
Q 26.515625 48.1875 22.3125 43.546875 
Q 18.109375 38.921875 18.109375 30.90625 
L 18.109375 0 
L 9.078125 0 
L 9.078125 54.6875 
L 18.109375 54.6875 
L 18.109375 46.1875 
Q 21.34375 51.125 25.703125 53.5625 
Q 30.078125 56 35.796875 56 
Q 45.21875 56 50.046875 50.171875 
Q 54.890625 44.34375 54.890625 33.015625 
z
" id="DejaVuSans-110"/>
     <path d="M 52 44.1875 
Q 55.375 50.25 60.0625 53.125 
Q 64.75 56 71.09375 56 
Q 79.640625 56 84.28125 50.015625 
Q 88.921875 44.046875 88.921875 33.015625 
L 88.921875 0 
L 79.890625 0 
L 79.890625 32.71875 
Q 79.890625 40.578125 77.09375 44.375 
Q 74.3125 48.1875 68.609375 48.1875 
Q 61.625 48.1875 57.5625 43.546875 
Q 53.515625 38.921875 53.515625 30.90625 
L 53.515625 0 
L 44.484375 0 
L 44.484375 32.71875 
Q 44.484375 40.625 41.703125 44.40625 
Q 38.921875 48.1875 33.109375 48.1875 
Q 26.21875 48.1875 22.15625 43.53125 
Q 18.109375 38.875 18.109375 30.90625 
L 18.109375 0 
L 9.078125 0 
L 9.078125 54.6875 
L 18.109375 54.6875 
L 18.109375 46.1875 
Q 21.1875 51.21875 25.484375 53.609375 
Q 29.78125 56 35.6875 56 
Q 41.65625 56 45.828125 52.96875 
Q 50 49.953125 52 44.1875 
z
" id="DejaVuSans-109"/>
     <path d="M 19.671875 34.8125 
L 19.671875 8.109375 
L 35.5 8.109375 
Q 43.453125 8.109375 47.28125 11.40625 
Q 51.125 14.703125 51.125 21.484375 
Q 51.125 28.328125 47.28125 31.5625 
Q 43.453125 34.8125 35.5 34.8125 
z
M 19.671875 64.796875 
L 19.671875 42.828125 
L 34.28125 42.828125 
Q 41.5 42.828125 45.03125 45.53125 
Q 48.578125 48.25 48.578125 53.8125 
Q 48.578125 59.328125 45.03125 62.0625 
Q 41.5 64.796875 34.28125 64.796875 
z
M 9.8125 72.90625 
L 35.015625 72.90625 
Q 46.296875 72.90625 52.390625 68.21875 
Q 58.5 63.53125 58.5 54.890625 
Q 58.5 48.1875 55.375 44.234375 
Q 52.25 40.28125 46.1875 39.3125 
Q 53.46875 37.75 57.5 32.78125 
Q 61.53125 27.828125 61.53125 20.40625 
Q 61.53125 10.640625 54.890625 5.3125 
Q 48.25 0 35.984375 0 
L 9.8125 0 
z
" id="DejaVuSans-66"/>
     <path d="M 9.8125 72.90625 
L 51.703125 72.90625 
L 51.703125 64.59375 
L 19.671875 64.59375 
L 19.671875 43.109375 
L 48.578125 43.109375 
L 48.578125 34.8125 
L 19.671875 34.8125 
L 19.671875 0 
L 9.8125 0 
z
" id="DejaVuSans-70"/>
     <path d="M 9.8125 72.90625 
L 19.671875 72.90625 
L 19.671875 8.296875 
L 55.171875 8.296875 
L 55.171875 0 
L 9.8125 0 
z
" id="DejaVuSans-76"/>
    </defs>
    <g transform="translate(99.4625 20.88)scale(0.12 -0.12)">
     <use xlink:href="#DejaVuSans-67"/>
     <use x="69.824219" xlink:href="#DejaVuSans-79"/>
     <use x="146.785156" xlink:href="#DejaVuSans-86"/>
     <use x="215.193359" xlink:href="#DejaVuSans-73"/>
     <use x="244.685547" xlink:href="#DejaVuSans-68"/>
     <use x="321.6875" xlink:href="#DejaVuSans-45"/>
     <use x="357.771484" xlink:href="#DejaVuSans-49"/>
     <use x="421.394531" xlink:href="#DejaVuSans-57"/>
     <use x="485.017578" xlink:href="#DejaVuSans-32"/>
     <use x="516.804688" xlink:href="#DejaVuSans-65"/>
     <use x="583.462891" xlink:href="#DejaVuSans-99"/>
     <use x="638.443359" xlink:href="#DejaVuSans-116"/>
     <use x="677.652344" xlink:href="#DejaVuSans-105"/>
     <use x="705.435547" xlink:href="#DejaVuSans-118"/>
     <use x="764.615234" xlink:href="#DejaVuSans-101"/>
     <use x="826.138672" xlink:href="#DejaVuSans-32"/>
     <use x="857.925781" xlink:href="#DejaVuSans-67"/>
     <use x="927.75" xlink:href="#DejaVuSans-97"/>
     <use x="989.029297" xlink:href="#DejaVuSans-115"/>
     <use x="1041.128906" xlink:href="#DejaVuSans-101"/>
     <use x="1102.652344" xlink:href="#DejaVuSans-115"/>
     <use x="1154.751953" xlink:href="#DejaVuSans-32"/>
     <use x="1186.539062" xlink:href="#DejaVuSans-80"/>
     <use x="1243.216797" xlink:href="#DejaVuSans-111"/>
     <use x="1304.398438" xlink:href="#DejaVuSans-108"/>
     <use x="1332.181641" xlink:href="#DejaVuSans-121"/>
     <use x="1391.361328" xlink:href="#DejaVuSans-110"/>
     <use x="1454.740234" xlink:href="#DejaVuSans-111"/>
     <use x="1515.921875" xlink:href="#DejaVuSans-109"/>
     <use x="1613.333984" xlink:href="#DejaVuSans-105"/>
     <use x="1641.117188" xlink:href="#DejaVuSans-97"/>
     <use x="1702.396484" xlink:href="#DejaVuSans-108"/>
     <use x="1730.179688" xlink:href="#DejaVuSans-32"/>
     <use x="1761.966797" xlink:href="#DejaVuSans-66"/>
     <use x="1830.570312" xlink:href="#DejaVuSans-101"/>
     <use x="1892.09375" xlink:href="#DejaVuSans-115"/>
     <use x="1944.193359" xlink:href="#DejaVuSans-116"/>
     <use x="1983.402344" xlink:href="#DejaVuSans-32"/>
     <use x="2015.189453" xlink:href="#DejaVuSans-70"/>
     <use x="2065.458984" xlink:href="#DejaVuSans-105"/>
     <use x="2093.242188" xlink:href="#DejaVuSans-116"/>
     <use x="2132.451172" xlink:href="#DejaVuSans-32"/>
     <use x="2164.238281" xlink:href="#DejaVuSans-76"/>
     <use x="2219.951172" xlink:href="#DejaVuSans-105"/>
     <use x="2247.734375" xlink:href="#DejaVuSans-110"/>
     <use x="2311.113281" xlink:href="#DejaVuSans-101"/>
    </g>
   </g>
   <g id="legend_1">
    <g id="patch_7">
     <path d="M 40.64 64.23625 
L 136.435313 64.23625 
Q 138.435313 64.23625 138.435313 62.23625 
L 138.435313 33.88 
Q 138.435313 31.88 136.435313 31.88 
L 40.64 31.88 
Q 38.64 31.88 38.64 33.88 
L 38.64 62.23625 
Q 38.64 64.23625 40.64 64.23625 
z
" style="fill:#ffffff;opacity:0.8;stroke:#cccccc;stroke-linejoin:miter;"/>
    </g>
    <g id="line2d_15">
     <path d="M 42.64 39.978437 
L 62.64 39.978437 
" style="fill:none;stroke:#1f77b4;stroke-dasharray:5.55,2.4;stroke-dashoffset:0;stroke-width:1.5;"/>
    </g>
    <g id="line2d_16"/>
    <g id="text_16">
     <!-- best fit line -->
     <defs>
      <path d="M 48.6875 27.296875 
Q 48.6875 37.203125 44.609375 42.84375 
Q 40.53125 48.484375 33.40625 48.484375 
Q 26.265625 48.484375 22.1875 42.84375 
Q 18.109375 37.203125 18.109375 27.296875 
Q 18.109375 17.390625 22.1875 11.75 
Q 26.265625 6.109375 33.40625 6.109375 
Q 40.53125 6.109375 44.609375 11.75 
Q 48.6875 17.390625 48.6875 27.296875 
z
M 18.109375 46.390625 
Q 20.953125 51.265625 25.265625 53.625 
Q 29.59375 56 35.59375 56 
Q 45.5625 56 51.78125 48.09375 
Q 58.015625 40.1875 58.015625 27.296875 
Q 58.015625 14.40625 51.78125 6.484375 
Q 45.5625 -1.421875 35.59375 -1.421875 
Q 29.59375 -1.421875 25.265625 0.953125 
Q 20.953125 3.328125 18.109375 8.203125 
L 18.109375 0 
L 9.078125 0 
L 9.078125 75.984375 
L 18.109375 75.984375 
z
" id="DejaVuSans-98"/>
      <path d="M 37.109375 75.984375 
L 37.109375 68.5 
L 28.515625 68.5 
Q 23.6875 68.5 21.796875 66.546875 
Q 19.921875 64.59375 19.921875 59.515625 
L 19.921875 54.6875 
L 34.71875 54.6875 
L 34.71875 47.703125 
L 19.921875 47.703125 
L 19.921875 0 
L 10.890625 0 
L 10.890625 47.703125 
L 2.296875 47.703125 
L 2.296875 54.6875 
L 10.890625 54.6875 
L 10.890625 58.5 
Q 10.890625 67.625 15.140625 71.796875 
Q 19.390625 75.984375 28.609375 75.984375 
z
" id="DejaVuSans-102"/>
     </defs>
     <g transform="translate(70.64 43.478437)scale(0.1 -0.1)">
      <use xlink:href="#DejaVuSans-98"/>
      <use x="63.476562" xlink:href="#DejaVuSans-101"/>
      <use x="125" xlink:href="#DejaVuSans-115"/>
      <use x="177.099609" xlink:href="#DejaVuSans-116"/>
      <use x="216.308594" xlink:href="#DejaVuSans-32"/>
      <use x="248.095703" xlink:href="#DejaVuSans-102"/>
      <use x="283.300781" xlink:href="#DejaVuSans-105"/>
      <use x="311.083984" xlink:href="#DejaVuSans-116"/>
      <use x="350.292969" xlink:href="#DejaVuSans-32"/>
      <use x="382.080078" xlink:href="#DejaVuSans-108"/>
      <use x="409.863281" xlink:href="#DejaVuSans-105"/>
      <use x="437.646484" xlink:href="#DejaVuSans-110"/>
      <use x="501.025391" xlink:href="#DejaVuSans-101"/>
     </g>
    </g>
    <g id="PathCollection_2">
     <g>
      <use style="fill:#ff0000;stroke:#ff0000;" x="52.64" xlink:href="#ma7e09cdebd" y="55.531563"/>
     </g>
    </g>
    <g id="text_17">
     <!-- Active Cases -->
     <g transform="translate(70.64 58.156563)scale(0.1 -0.1)">
      <use xlink:href="#DejaVuSans-65"/>
      <use x="66.658203" xlink:href="#DejaVuSans-99"/>
      <use x="121.638672" xlink:href="#DejaVuSans-116"/>
      <use x="160.847656" xlink:href="#DejaVuSans-105"/>
      <use x="188.630859" xlink:href="#DejaVuSans-118"/>
      <use x="247.810547" xlink:href="#DejaVuSans-101"/>
      <use x="309.333984" xlink:href="#DejaVuSans-32"/>
      <use x="341.121094" xlink:href="#DejaVuSans-67"/>
      <use x="410.945312" xlink:href="#DejaVuSans-97"/>
      <use x="472.224609" xlink:href="#DejaVuSans-115"/>
      <use x="524.324219" xlink:href="#DejaVuSans-101"/>
      <use x="585.847656" xlink:href="#DejaVuSans-115"/>
     </g>
    </g>
   </g>
  </g>
 </g>
 <defs>
  <clipPath id="p82cc73168c">
   <rect height="290.84" width="416.36" x="33.64" y="26.88"/>
  </clipPath>
 </defs>
</svg>
