<?xml version="1.0" encoding="utf-8" standalone="no"?>
<!DOCTYPE svg PUBLIC "-//W3C//DTD SVG 1.1//EN"
  "http://www.w3.org/Graphics/SVG/1.1/DTD/svg11.dtd">
<!-- Created with matplotlib (https://matplotlib.org/) -->
<svg height="345.6pt" version="1.1" viewBox="0 0 460.8 345.6" width="460.8pt" xmlns="http://www.w3.org/2000/svg" xmlns:xlink="http://www.w3.org/1999/xlink">
 <defs>
  <style type="text/css">
*{stroke-linecap:butt;stroke-linejoin:round;}
  </style>
 </defs>
 <g id="figure_1">
  <g id="patch_1">
   <path d="M 0 345.6 
L 460.8 345.6 
L 460.8 0 
L 0 0 
z
" style="fill:#ffffff;"/>
  </g>
  <g id="axes_1">
   <g id="patch_2">
    <path d="M 33.64 317.72 
L 450 317.72 
L 450 26.88 
L 33.64 26.88 
z
" style="fill:#ffffff;"/>
   </g>
   <g id="PathCollection_1">
    <defs>
     <path d="M 0 0.707107 
C 0.187527 0.707107 0.367398 0.632602 0.5 0.5 
C 0.632602 0.367398 0.707107 0.187527 0.707107 0 
C 0.707107 -0.187527 0.632602 -0.367398 0.5 -0.5 
C 0.367398 -0.632602 0.187527 -0.707107 0 -0.707107 
C -0.187527 -0.707107 -0.367398 -0.632602 -0.5 -0.5 
C -0.632602 -0.367398 -0.707107 -0.187527 -0.707107 0 
C -0.707107 0.187527 -0.632602 0.367398 -0.5 0.5 
C -0.367398 0.632602 -0.187527 0.707107 0 0.707107 
z
" id="mdec620cc8c" style="stroke:#ff0000;"/>
    </defs>
    <g clip-path="url(#pa4e48df0a3)">
     <use style="fill:#ff0000;stroke:#ff0000;" x="52.565455" xlink:href="#mdec620cc8c" y="297.122055"/>
     <use style="fill:#ff0000;stroke:#ff0000;" x="56.679684" xlink:href="#mdec620cc8c" y="297.112279"/>
     <use style="fill:#ff0000;stroke:#ff0000;" x="60.793913" xlink:href="#mdec620cc8c" y="297.084476"/>
     <use style="fill:#ff0000;stroke:#ff0000;" x="64.908142" xlink:href="#mdec620cc8c" y="297.036202"/>
     <use style="fill:#ff0000;stroke:#ff0000;" x="69.022372" xlink:href="#mdec620cc8c" y="296.969292"/>
     <use style="fill:#ff0000;stroke:#ff0000;" x="73.136601" xlink:href="#mdec620cc8c" y="296.890466"/>
     <use style="fill:#ff0000;stroke:#ff0000;" x="77.25083" xlink:href="#mdec620cc8c" y="296.630158"/>
     <use style="fill:#ff0000;stroke:#ff0000;" x="81.365059" xlink:href="#mdec620cc8c" y="296.572413"/>
     <use style="fill:#ff0000;stroke:#ff0000;" x="85.479289" xlink:href="#mdec620cc8c" y="296.367405"/>
     <use style="fill:#ff0000;stroke:#ff0000;" x="89.593518" xlink:href="#mdec620cc8c" y="296.207309"/>
     <use style="fill:#ff0000;stroke:#ff0000;" x="93.707747" xlink:href="#mdec620cc8c" y="296.003319"/>
     <use style="fill:#ff0000;stroke:#ff0000;" x="97.821976" xlink:href="#mdec620cc8c" y="295.549306"/>
     <use style="fill:#ff0000;stroke:#ff0000;" x="101.936206" xlink:href="#mdec620cc8c" y="295.256102"/>
     <use style="fill:#ff0000;stroke:#ff0000;" x="106.050435" xlink:href="#mdec620cc8c" y="294.877657"/>
     <use style="fill:#ff0000;stroke:#ff0000;" x="110.164664" xlink:href="#mdec620cc8c" y="294.531495"/>
     <use style="fill:#ff0000;stroke:#ff0000;" x="114.278893" xlink:href="#mdec620cc8c" y="294.253873"/>
     <use style="fill:#ff0000;stroke:#ff0000;" x="118.393123" xlink:href="#mdec620cc8c" y="293.949568"/>
     <use style="fill:#ff0000;stroke:#ff0000;" x="122.507352" xlink:href="#mdec620cc8c" y="293.742116"/>
     <use style="fill:#ff0000;stroke:#ff0000;" x="126.621581" xlink:href="#mdec620cc8c" y="293.507675"/>
     <use style="fill:#ff0000;stroke:#ff0000;" x="130.73581" xlink:href="#mdec620cc8c" y="293.324054"/>
     <use style="fill:#ff0000;stroke:#ff0000;" x="134.85004" xlink:href="#mdec620cc8c" y="293.201537"/>
     <use style="fill:#ff0000;stroke:#ff0000;" x="138.964269" xlink:href="#mdec620cc8c" y="293.206935"/>
     <use style="fill:#ff0000;stroke:#ff0000;" x="143.078498" xlink:href="#mdec620cc8c" y="291.806706"/>
     <use style="fill:#ff0000;stroke:#ff0000;" x="147.192727" xlink:href="#mdec620cc8c" y="291.338028"/>
     <use style="fill:#ff0000;stroke:#ff0000;" x="151.306957" xlink:href="#mdec620cc8c" y="291.270303"/>
     <use style="fill:#ff0000;stroke:#ff0000;" x="155.421186" xlink:href="#mdec620cc8c" y="291.207161"/>
     <use style="fill:#ff0000;stroke:#ff0000;" x="159.535415" xlink:href="#mdec620cc8c" y="291.18496"/>
     <use style="fill:#ff0000;stroke:#ff0000;" x="163.649644" xlink:href="#mdec620cc8c" y="291.188015"/>
     <use style="fill:#ff0000;stroke:#ff0000;" x="167.763874" xlink:href="#mdec620cc8c" y="291.328659"/>
     <use style="fill:#ff0000;stroke:#ff0000;" x="171.878103" xlink:href="#mdec620cc8c" y="291.493949"/>
     <use style="fill:#ff0000;stroke:#ff0000;" x="175.992332" xlink:href="#mdec620cc8c" y="291.503624"/>
     <use style="fill:#ff0000;stroke:#ff0000;" x="180.106561" xlink:href="#mdec620cc8c" y="291.753137"/>
     <use style="fill:#ff0000;stroke:#ff0000;" x="184.220791" xlink:href="#mdec620cc8c" y="291.766682"/>
     <use style="fill:#ff0000;stroke:#ff0000;" x="188.33502" xlink:href="#mdec620cc8c" y="291.908243"/>
     <use style="fill:#ff0000;stroke:#ff0000;" x="192.449249" xlink:href="#mdec620cc8c" y="292.102965"/>
     <use style="fill:#ff0000;stroke:#ff0000;" x="196.563478" xlink:href="#mdec620cc8c" y="292.261737"/>
     <use style="fill:#ff0000;stroke:#ff0000;" x="200.677708" xlink:href="#mdec620cc8c" y="292.422546"/>
     <use style="fill:#ff0000;stroke:#ff0000;" x="204.791937" xlink:href="#mdec620cc8c" y="292.639063"/>
     <use style="fill:#ff0000;stroke:#ff0000;" x="208.906166" xlink:href="#mdec620cc8c" y="292.765449"/>
     <use style="fill:#ff0000;stroke:#ff0000;" x="213.020395" xlink:href="#mdec620cc8c" y="292.829711"/>
     <use style="fill:#ff0000;stroke:#ff0000;" x="217.134625" xlink:href="#mdec620cc8c" y="292.935424"/>
     <use style="fill:#ff0000;stroke:#ff0000;" x="221.248854" xlink:href="#mdec620cc8c" y="292.952431"/>
     <use style="fill:#ff0000;stroke:#ff0000;" x="225.363083" xlink:href="#mdec620cc8c" y="293.029424"/>
     <use style="fill:#ff0000;stroke:#ff0000;" x="229.477312" xlink:href="#mdec620cc8c" y="293.024739"/>
     <use style="fill:#ff0000;stroke:#ff0000;" x="233.591542" xlink:href="#mdec620cc8c" y="292.848145"/>
     <use style="fill:#ff0000;stroke:#ff0000;" x="237.705771" xlink:href="#mdec620cc8c" y="292.699964"/>
     <use style="fill:#ff0000;stroke:#ff0000;" x="241.82" xlink:href="#mdec620cc8c" y="292.557996"/>
     <use style="fill:#ff0000;stroke:#ff0000;" x="245.934229" xlink:href="#mdec620cc8c" y="292.376412"/>
     <use style="fill:#ff0000;stroke:#ff0000;" x="250.048458" xlink:href="#mdec620cc8c" y="292.086569"/>
     <use style="fill:#ff0000;stroke:#ff0000;" x="254.162688" xlink:href="#mdec620cc8c" y="291.648342"/>
     <use style="fill:#ff0000;stroke:#ff0000;" x="258.276917" xlink:href="#mdec620cc8c" y="291.541305"/>
     <use style="fill:#ff0000;stroke:#ff0000;" x="262.391146" xlink:href="#mdec620cc8c" y="290.090869"/>
     <use style="fill:#ff0000;stroke:#ff0000;" x="266.505375" xlink:href="#mdec620cc8c" y="289.265132"/>
     <use style="fill:#ff0000;stroke:#ff0000;" x="270.619605" xlink:href="#mdec620cc8c" y="288.519443"/>
     <use style="fill:#ff0000;stroke:#ff0000;" x="274.733834" xlink:href="#mdec620cc8c" y="287.360479"/>
     <use style="fill:#ff0000;stroke:#ff0000;" x="278.848063" xlink:href="#mdec620cc8c" y="286.138678"/>
     <use style="fill:#ff0000;stroke:#ff0000;" x="282.962292" xlink:href="#mdec620cc8c" y="284.670215"/>
     <use style="fill:#ff0000;stroke:#ff0000;" x="287.076522" xlink:href="#mdec620cc8c" y="282.136176"/>
     <use style="fill:#ff0000;stroke:#ff0000;" x="291.190751" xlink:href="#mdec620cc8c" y="279.523109"/>
     <use style="fill:#ff0000;stroke:#ff0000;" x="295.30498" xlink:href="#mdec620cc8c" y="276.832946"/>
     <use style="fill:#ff0000;stroke:#ff0000;" x="299.419209" xlink:href="#mdec620cc8c" y="274.320295"/>
     <use style="fill:#ff0000;stroke:#ff0000;" x="303.533439" xlink:href="#mdec620cc8c" y="270.350893"/>
     <use style="fill:#ff0000;stroke:#ff0000;" x="307.647668" xlink:href="#mdec620cc8c" y="267.495135"/>
     <use style="fill:#ff0000;stroke:#ff0000;" x="311.761897" xlink:href="#mdec620cc8c" y="263.292616"/>
     <use style="fill:#ff0000;stroke:#ff0000;" x="315.876126" xlink:href="#mdec620cc8c" y="258.120457"/>
     <use style="fill:#ff0000;stroke:#ff0000;" x="319.990356" xlink:href="#mdec620cc8c" y="252.854501"/>
     <use style="fill:#ff0000;stroke:#ff0000;" x="324.104585" xlink:href="#mdec620cc8c" y="247.20623"/>
     <use style="fill:#ff0000;stroke:#ff0000;" x="328.218814" xlink:href="#mdec620cc8c" y="242.47352"/>
     <use style="fill:#ff0000;stroke:#ff0000;" x="332.333043" xlink:href="#mdec620cc8c" y="238.083407"/>
     <use style="fill:#ff0000;stroke:#ff0000;" x="336.447273" xlink:href="#mdec620cc8c" y="232.265263"/>
     <use style="fill:#ff0000;stroke:#ff0000;" x="340.561502" xlink:href="#mdec620cc8c" y="226.636138"/>
     <use style="fill:#ff0000;stroke:#ff0000;" x="344.675731" xlink:href="#mdec620cc8c" y="220.801394"/>
     <use style="fill:#ff0000;stroke:#ff0000;" x="348.78996" xlink:href="#mdec620cc8c" y="214.545939"/>
    </g>
   </g>
   <g id="matplotlib.axis_1">
    <g id="xtick_1">
     <g id="line2d_1">
      <defs>
       <path d="M 0 0 
L 0 3.5 
" id="m07d58d7e3e" style="stroke:#000000;stroke-width:0.8;"/>
      </defs>
      <g>
       <use style="stroke:#000000;stroke-width:0.8;" x="52.565455" xlink:href="#m07d58d7e3e" y="317.72"/>
      </g>
     </g>
     <g id="text_1">
      <!-- 1/22/20 -->
      <defs>
       <path d="M 12.40625 8.296875 
L 28.515625 8.296875 
L 28.515625 63.921875 
L 10.984375 60.40625 
L 10.984375 69.390625 
L 28.421875 72.90625 
L 38.28125 72.90625 
L 38.28125 8.296875 
L 54.390625 8.296875 
L 54.390625 0 
L 12.40625 0 
z
" id="DejaVuSans-49"/>
       <path d="M 25.390625 72.90625 
L 33.6875 72.90625 
L 8.296875 -9.28125 
L 0 -9.28125 
z
" id="DejaVuSans-47"/>
       <path d="M 19.1875 8.296875 
L 53.609375 8.296875 
L 53.609375 0 
L 7.328125 0 
L 7.328125 8.296875 
Q 12.9375 14.109375 22.625 23.890625 
Q 32.328125 33.6875 34.8125 36.53125 
Q 39.546875 41.84375 41.421875 45.53125 
Q 43.3125 49.21875 43.3125 52.78125 
Q 43.3125 58.59375 39.234375 62.25 
Q 35.15625 65.921875 28.609375 65.921875 
Q 23.96875 65.921875 18.8125 64.3125 
Q 13.671875 62.703125 7.8125 59.421875 
L 7.8125 69.390625 
Q 13.765625 71.78125 18.9375 73 
Q 24.125 74.21875 28.421875 74.21875 
Q 39.75 74.21875 46.484375 68.546875 
Q 53.21875 62.890625 53.21875 53.421875 
Q 53.21875 48.921875 51.53125 44.890625 
Q 49.859375 40.875 45.40625 35.40625 
Q 44.1875 33.984375 37.640625 27.21875 
Q 31.109375 20.453125 19.1875 8.296875 
z
" id="DejaVuSans-50"/>
       <path d="M 31.78125 66.40625 
Q 24.171875 66.40625 20.328125 58.90625 
Q 16.5 51.421875 16.5 36.375 
Q 16.5 21.390625 20.328125 13.890625 
Q 24.171875 6.390625 31.78125 6.390625 
Q 39.453125 6.390625 43.28125 13.890625 
Q 47.125 21.390625 47.125 36.375 
Q 47.125 51.421875 43.28125 58.90625 
Q 39.453125 66.40625 31.78125 66.40625 
z
M 31.78125 74.21875 
Q 44.046875 74.21875 50.515625 64.515625 
Q 56.984375 54.828125 56.984375 36.375 
Q 56.984375 17.96875 50.515625 8.265625 
Q 44.046875 -1.421875 31.78125 -1.421875 
Q 19.53125 -1.421875 13.0625 8.265625 
Q 6.59375 17.96875 6.59375 36.375 
Q 6.59375 54.828125 13.0625 64.515625 
Q 19.53125 74.21875 31.78125 74.21875 
z
" id="DejaVuSans-48"/>
      </defs>
      <g transform="translate(33.290455 332.318437)scale(0.1 -0.1)">
       <use xlink:href="#DejaVuSans-49"/>
       <use x="63.623047" xlink:href="#DejaVuSans-47"/>
       <use x="97.314453" xlink:href="#DejaVuSans-50"/>
       <use x="160.9375" xlink:href="#DejaVuSans-50"/>
       <use x="224.560547" xlink:href="#DejaVuSans-47"/>
       <use x="258.251953" xlink:href="#DejaVuSans-50"/>
       <use x="321.875" xlink:href="#DejaVuSans-48"/>
      </g>
     </g>
    </g>
    <g id="xtick_2">
     <g id="line2d_2">
      <g>
       <use style="stroke:#000000;stroke-width:0.8;" x="134.85004" xlink:href="#m07d58d7e3e" y="317.72"/>
      </g>
     </g>
     <g id="text_2">
      <!-- 2/11/20 -->
      <g transform="translate(115.57504 332.318437)scale(0.1 -0.1)">
       <use xlink:href="#DejaVuSans-50"/>
       <use x="63.623047" xlink:href="#DejaVuSans-47"/>
       <use x="97.314453" xlink:href="#DejaVuSans-49"/>
       <use x="160.9375" xlink:href="#DejaVuSans-49"/>
       <use x="224.560547" xlink:href="#DejaVuSans-47"/>
       <use x="258.251953" xlink:href="#DejaVuSans-50"/>
       <use x="321.875" xlink:href="#DejaVuSans-48"/>
      </g>
     </g>
    </g>
    <g id="xtick_3">
     <g id="line2d_3">
      <g>
       <use style="stroke:#000000;stroke-width:0.8;" x="217.134625" xlink:href="#m07d58d7e3e" y="317.72"/>
      </g>
     </g>
     <g id="text_3">
      <!-- 3/2/20 -->
      <defs>
       <path d="M 40.578125 39.3125 
Q 47.65625 37.796875 51.625 33 
Q 55.609375 28.21875 55.609375 21.1875 
Q 55.609375 10.40625 48.1875 4.484375 
Q 40.765625 -1.421875 27.09375 -1.421875 
Q 22.515625 -1.421875 17.65625 -0.515625 
Q 12.796875 0.390625 7.625 2.203125 
L 7.625 11.71875 
Q 11.71875 9.328125 16.59375 8.109375 
Q 21.484375 6.890625 26.8125 6.890625 
Q 36.078125 6.890625 40.9375 10.546875 
Q 45.796875 14.203125 45.796875 21.1875 
Q 45.796875 27.640625 41.28125 31.265625 
Q 36.765625 34.90625 28.71875 34.90625 
L 20.21875 34.90625 
L 20.21875 43.015625 
L 29.109375 43.015625 
Q 36.375 43.015625 40.234375 45.921875 
Q 44.09375 48.828125 44.09375 54.296875 
Q 44.09375 59.90625 40.109375 62.90625 
Q 36.140625 65.921875 28.71875 65.921875 
Q 24.65625 65.921875 20.015625 65.03125 
Q 15.375 64.15625 9.8125 62.3125 
L 9.8125 71.09375 
Q 15.4375 72.65625 20.34375 73.4375 
Q 25.25 74.21875 29.59375 74.21875 
Q 40.828125 74.21875 47.359375 69.109375 
Q 53.90625 64.015625 53.90625 55.328125 
Q 53.90625 49.265625 50.4375 45.09375 
Q 46.96875 40.921875 40.578125 39.3125 
z
" id="DejaVuSans-51"/>
      </defs>
      <g transform="translate(201.040875 332.318437)scale(0.1 -0.1)">
       <use xlink:href="#DejaVuSans-51"/>
       <use x="63.623047" xlink:href="#DejaVuSans-47"/>
       <use x="97.314453" xlink:href="#DejaVuSans-50"/>
       <use x="160.9375" xlink:href="#DejaVuSans-47"/>
       <use x="194.628906" xlink:href="#DejaVuSans-50"/>
       <use x="258.251953" xlink:href="#DejaVuSans-48"/>
      </g>
     </g>
    </g>
    <g id="xtick_4">
     <g id="line2d_4">
      <g>
       <use style="stroke:#000000;stroke-width:0.8;" x="299.419209" xlink:href="#m07d58d7e3e" y="317.72"/>
      </g>
     </g>
     <g id="text_4">
      <!-- 3/22/20 -->
      <g transform="translate(280.144209 332.318437)scale(0.1 -0.1)">
       <use xlink:href="#DejaVuSans-51"/>
       <use x="63.623047" xlink:href="#DejaVuSans-47"/>
       <use x="97.314453" xlink:href="#DejaVuSans-50"/>
       <use x="160.9375" xlink:href="#DejaVuSans-50"/>
       <use x="224.560547" xlink:href="#DejaVuSans-47"/>
       <use x="258.251953" xlink:href="#DejaVuSans-50"/>
       <use x="321.875" xlink:href="#DejaVuSans-48"/>
      </g>
     </g>
    </g>
    <g id="xtick_5">
     <g id="line2d_5">
      <g>
       <use style="stroke:#000000;stroke-width:0.8;" x="381.703794" xlink:href="#m07d58d7e3e" y="317.72"/>
      </g>
     </g>
     <g id="text_5">
      <!-- 04/11/20 -->
      <defs>
       <path d="M 37.796875 64.3125 
L 12.890625 25.390625 
L 37.796875 25.390625 
z
M 35.203125 72.90625 
L 47.609375 72.90625 
L 47.609375 25.390625 
L 58.015625 25.390625 
L 58.015625 17.1875 
L 47.609375 17.1875 
L 47.609375 0 
L 37.796875 0 
L 37.796875 17.1875 
L 4.890625 17.1875 
L 4.890625 26.703125 
z
" id="DejaVuSans-52"/>
      </defs>
      <g transform="translate(359.247544 332.318437)scale(0.1 -0.1)">
       <use xlink:href="#DejaVuSans-48"/>
       <use x="63.623047" xlink:href="#DejaVuSans-52"/>
       <use x="127.246094" xlink:href="#DejaVuSans-47"/>
       <use x="160.9375" xlink:href="#DejaVuSans-49"/>
       <use x="224.560547" xlink:href="#DejaVuSans-49"/>
       <use x="288.183594" xlink:href="#DejaVuSans-47"/>
       <use x="321.875" xlink:href="#DejaVuSans-50"/>
       <use x="385.498047" xlink:href="#DejaVuSans-48"/>
      </g>
     </g>
    </g>
   </g>
   <g id="matplotlib.axis_2">
    <g id="ytick_1">
     <g id="line2d_6">
      <defs>
       <path d="M 0 0 
L -3.5 0 
" id="m3b364d63be" style="stroke:#000000;stroke-width:0.8;"/>
      </defs>
      <g>
       <use style="stroke:#000000;stroke-width:0.8;" x="33.64" xlink:href="#m3b364d63be" y="297.173995"/>
      </g>
     </g>
     <g id="text_6">
      <!-- 0.0 -->
      <defs>
       <path d="M 10.6875 12.40625 
L 21 12.40625 
L 21 0 
L 10.6875 0 
z
" id="DejaVuSans-46"/>
      </defs>
      <g transform="translate(10.736875 300.973214)scale(0.1 -0.1)">
       <use xlink:href="#DejaVuSans-48"/>
       <use x="63.623047" xlink:href="#DejaVuSans-46"/>
       <use x="95.410156" xlink:href="#DejaVuSans-48"/>
      </g>
     </g>
    </g>
    <g id="ytick_2">
     <g id="line2d_7">
      <g>
       <use style="stroke:#000000;stroke-width:0.8;" x="33.64" xlink:href="#m3b364d63be" y="246.252885"/>
      </g>
     </g>
     <g id="text_7">
      <!-- 0.5 -->
      <defs>
       <path d="M 10.796875 72.90625 
L 49.515625 72.90625 
L 49.515625 64.59375 
L 19.828125 64.59375 
L 19.828125 46.734375 
Q 21.96875 47.46875 24.109375 47.828125 
Q 26.265625 48.1875 28.421875 48.1875 
Q 40.625 48.1875 47.75 41.5 
Q 54.890625 34.8125 54.890625 23.390625 
Q 54.890625 11.625 47.5625 5.09375 
Q 40.234375 -1.421875 26.90625 -1.421875 
Q 22.3125 -1.421875 17.546875 -0.640625 
Q 12.796875 0.140625 7.71875 1.703125 
L 7.71875 11.625 
Q 12.109375 9.234375 16.796875 8.0625 
Q 21.484375 6.890625 26.703125 6.890625 
Q 35.15625 6.890625 40.078125 11.328125 
Q 45.015625 15.765625 45.015625 23.390625 
Q 45.015625 31 40.078125 35.4375 
Q 35.15625 39.890625 26.703125 39.890625 
Q 22.75 39.890625 18.8125 39.015625 
Q 14.890625 38.140625 10.796875 36.28125 
z
" id="DejaVuSans-53"/>
      </defs>
      <g transform="translate(10.736875 250.052103)scale(0.1 -0.1)">
       <use xlink:href="#DejaVuSans-48"/>
       <use x="63.623047" xlink:href="#DejaVuSans-46"/>
       <use x="95.410156" xlink:href="#DejaVuSans-53"/>
      </g>
     </g>
    </g>
    <g id="ytick_3">
     <g id="line2d_8">
      <g>
       <use style="stroke:#000000;stroke-width:0.8;" x="33.64" xlink:href="#m3b364d63be" y="195.331774"/>
      </g>
     </g>
     <g id="text_8">
      <!-- 1.0 -->
      <g transform="translate(10.736875 199.130993)scale(0.1 -0.1)">
       <use xlink:href="#DejaVuSans-49"/>
       <use x="63.623047" xlink:href="#DejaVuSans-46"/>
       <use x="95.410156" xlink:href="#DejaVuSans-48"/>
      </g>
     </g>
    </g>
    <g id="ytick_4">
     <g id="line2d_9">
      <g>
       <use style="stroke:#000000;stroke-width:0.8;" x="33.64" xlink:href="#m3b364d63be" y="144.410664"/>
      </g>
     </g>
     <g id="text_9">
      <!-- 1.5 -->
      <g transform="translate(10.736875 148.209883)scale(0.1 -0.1)">
       <use xlink:href="#DejaVuSans-49"/>
       <use x="63.623047" xlink:href="#DejaVuSans-46"/>
       <use x="95.410156" xlink:href="#DejaVuSans-53"/>
      </g>
     </g>
    </g>
    <g id="ytick_5">
     <g id="line2d_10">
      <g>
       <use style="stroke:#000000;stroke-width:0.8;" x="33.64" xlink:href="#m3b364d63be" y="93.489554"/>
      </g>
     </g>
     <g id="text_10">
      <!-- 2.0 -->
      <g transform="translate(10.736875 97.288773)scale(0.1 -0.1)">
       <use xlink:href="#DejaVuSans-50"/>
       <use x="63.623047" xlink:href="#DejaVuSans-46"/>
       <use x="95.410156" xlink:href="#DejaVuSans-48"/>
      </g>
     </g>
    </g>
    <g id="ytick_6">
     <g id="line2d_11">
      <g>
       <use style="stroke:#000000;stroke-width:0.8;" x="33.64" xlink:href="#m3b364d63be" y="42.568444"/>
      </g>
     </g>
     <g id="text_11">
      <!-- 2.5 -->
      <g transform="translate(10.736875 46.367662)scale(0.1 -0.1)">
       <use xlink:href="#DejaVuSans-50"/>
       <use x="63.623047" xlink:href="#DejaVuSans-46"/>
       <use x="95.410156" xlink:href="#DejaVuSans-53"/>
      </g>
     </g>
    </g>
    <g id="text_12">
     <!-- 1e6 -->
     <defs>
      <path d="M 56.203125 29.59375 
L 56.203125 25.203125 
L 14.890625 25.203125 
Q 15.484375 15.921875 20.484375 11.0625 
Q 25.484375 6.203125 34.421875 6.203125 
Q 39.59375 6.203125 44.453125 7.46875 
Q 49.3125 8.734375 54.109375 11.28125 
L 54.109375 2.78125 
Q 49.265625 0.734375 44.1875 -0.34375 
Q 39.109375 -1.421875 33.890625 -1.421875 
Q 20.796875 -1.421875 13.15625 6.1875 
Q 5.515625 13.8125 5.515625 26.8125 
Q 5.515625 40.234375 12.765625 48.109375 
Q 20.015625 56 32.328125 56 
Q 43.359375 56 49.78125 48.890625 
Q 56.203125 41.796875 56.203125 29.59375 
z
M 47.21875 32.234375 
Q 47.125 39.59375 43.09375 43.984375 
Q 39.0625 48.390625 32.421875 48.390625 
Q 24.90625 48.390625 20.390625 44.140625 
Q 15.875 39.890625 15.1875 32.171875 
z
" id="DejaVuSans-101"/>
      <path d="M 33.015625 40.375 
Q 26.375 40.375 22.484375 35.828125 
Q 18.609375 31.296875 18.609375 23.390625 
Q 18.609375 15.53125 22.484375 10.953125 
Q 26.375 6.390625 33.015625 6.390625 
Q 39.65625 6.390625 43.53125 10.953125 
Q 47.40625 15.53125 47.40625 23.390625 
Q 47.40625 31.296875 43.53125 35.828125 
Q 39.65625 40.375 33.015625 40.375 
z
M 52.59375 71.296875 
L 52.59375 62.3125 
Q 48.875 64.0625 45.09375 64.984375 
Q 41.3125 65.921875 37.59375 65.921875 
Q 27.828125 65.921875 22.671875 59.328125 
Q 17.53125 52.734375 16.796875 39.40625 
Q 19.671875 43.65625 24.015625 45.921875 
Q 28.375 48.1875 33.59375 48.1875 
Q 44.578125 48.1875 50.953125 41.515625 
Q 57.328125 34.859375 57.328125 23.390625 
Q 57.328125 12.15625 50.6875 5.359375 
Q 44.046875 -1.421875 33.015625 -1.421875 
Q 20.359375 -1.421875 13.671875 8.265625 
Q 6.984375 17.96875 6.984375 36.375 
Q 6.984375 53.65625 15.1875 63.9375 
Q 23.390625 74.21875 37.203125 74.21875 
Q 40.921875 74.21875 44.703125 73.484375 
Q 48.484375 72.75 52.59375 71.296875 
z
" id="DejaVuSans-54"/>
     </defs>
     <g transform="translate(33.64 23.88)scale(0.1 -0.1)">
      <use xlink:href="#DejaVuSans-49"/>
      <use x="63.623047" xlink:href="#DejaVuSans-101"/>
      <use x="125.146484" xlink:href="#DejaVuSans-54"/>
     </g>
    </g>
   </g>
   <g id="line2d_12">
    <path clip-path="url(#pa4e48df0a3)" d="M 52.565455 304.5 
L 56.679684 302.6111 
L 60.793913 300.886731 
L 64.908142 299.320687 
L 69.022372 297.906761 
L 73.136601 296.638748 
L 77.25083 295.510442 
L 81.365059 294.515637 
L 85.479289 293.648127 
L 89.593518 292.901705 
L 93.707747 292.270166 
L 97.821976 291.747305 
L 101.936206 291.326914 
L 106.050435 291.002788 
L 110.164664 290.768721 
L 114.278893 290.618507 
L 118.393123 290.54594 
L 122.507352 290.544814 
L 126.621581 290.608923 
L 130.73581 290.732062 
L 134.85004 290.908023 
L 138.964269 291.130602 
L 143.078498 291.393591 
L 147.192727 291.690786 
L 151.306957 292.01598 
L 155.421186 292.362967 
L 159.535415 292.725541 
L 163.649644 293.097497 
L 167.763874 293.472628 
L 171.878103 293.844728 
L 175.992332 294.207592 
L 180.106561 294.555013 
L 184.220791 294.880785 
L 188.33502 295.178702 
L 192.449249 295.442559 
L 196.563478 295.66615 
L 200.677708 295.843268 
L 204.791937 295.967707 
L 208.906166 296.033262 
L 213.020395 296.033726 
L 217.134625 295.962894 
L 221.248854 295.814559 
L 225.363083 295.582516 
L 229.477312 295.260559 
L 233.591542 294.842481 
L 237.705771 294.322077 
L 241.82 293.693141 
L 245.934229 292.949466 
L 250.048458 292.084847 
L 254.162688 291.093077 
L 258.276917 289.967952 
L 262.391146 288.703264 
L 266.505375 287.292808 
L 270.619605 285.730377 
L 274.733834 284.009767 
L 278.848063 282.12477 
L 282.962292 280.069182 
L 287.076522 277.836795 
L 291.190751 275.421404 
L 295.30498 272.816803 
L 299.419209 270.016786 
L 303.533439 267.015147 
L 307.647668 263.80568 
L 311.761897 260.382179 
L 315.876126 256.738438 
L 319.990356 252.868251 
L 324.104585 248.765412 
L 328.218814 244.423716 
L 332.333043 239.836955 
L 336.447273 234.998925 
L 340.561502 229.903419 
L 344.675731 224.544231 
L 348.78996 218.915155 
L 352.90419 213.009985 
L 357.018419 206.822516 
L 361.132648 200.346541 
L 365.246877 193.575855 
L 369.361107 186.50425 
L 373.475336 179.125522 
L 377.589565 171.433465 
L 381.703794 163.421872 
L 385.818024 155.084537 
L 389.932253 146.415254 
L 394.046482 137.407819 
L 398.160711 128.056023 
L 402.274941 118.353662 
L 406.38917 108.29453 
L 410.503399 97.87242 
L 414.617628 87.081127 
L 418.731858 75.914444 
L 422.846087 64.366166 
L 426.960316 52.430087 
L 431.074545 40.1 
" style="fill:none;stroke:#1f77b4;stroke-dasharray:5.55,2.4;stroke-dashoffset:0;stroke-width:1.5;"/>
   </g>
   <g id="patch_3">
    <path d="M 33.64 317.72 
L 33.64 26.88 
" style="fill:none;stroke:#000000;stroke-linecap:square;stroke-linejoin:miter;stroke-width:0.8;"/>
   </g>
   <g id="patch_4">
    <path d="M 450 317.72 
L 450 26.88 
" style="fill:none;stroke:#000000;stroke-linecap:square;stroke-linejoin:miter;stroke-width:0.8;"/>
   </g>
   <g id="patch_5">
    <path d="M 33.64 317.72 
L 450 317.72 
" style="fill:none;stroke:#000000;stroke-linecap:square;stroke-linejoin:miter;stroke-width:0.8;"/>
   </g>
   <g id="patch_6">
    <path d="M 33.64 26.88 
L 450 26.88 
" style="fill:none;stroke:#000000;stroke-linecap:square;stroke-linejoin:miter;stroke-width:0.8;"/>
   </g>
   <g id="text_13">
    <!-- COVID-19 Active Cases Polynomial Best Fit Line -->
    <defs>
     <path d="M 64.40625 67.28125 
L 64.40625 56.890625 
Q 59.421875 61.53125 53.78125 63.8125 
Q 48.140625 66.109375 41.796875 66.109375 
Q 29.296875 66.109375 22.65625 58.46875 
Q 16.015625 50.828125 16.015625 36.375 
Q 16.015625 21.96875 22.65625 14.328125 
Q 29.296875 6.6875 41.796875 6.6875 
Q 48.140625 6.6875 53.78125 8.984375 
Q 59.421875 11.28125 64.40625 15.921875 
L 64.40625 5.609375 
Q 59.234375 2.09375 53.4375 0.328125 
Q 47.65625 -1.421875 41.21875 -1.421875 
Q 24.65625 -1.421875 15.125 8.703125 
Q 5.609375 18.84375 5.609375 36.375 
Q 5.609375 53.953125 15.125 64.078125 
Q 24.65625 74.21875 41.21875 74.21875 
Q 47.75 74.21875 53.53125 72.484375 
Q 59.328125 70.75 64.40625 67.28125 
z
" id="DejaVuSans-67"/>
     <path d="M 39.40625 66.21875 
Q 28.65625 66.21875 22.328125 58.203125 
Q 16.015625 50.203125 16.015625 36.375 
Q 16.015625 22.609375 22.328125 14.59375 
Q 28.65625 6.59375 39.40625 6.59375 
Q 50.140625 6.59375 56.421875 14.59375 
Q 62.703125 22.609375 62.703125 36.375 
Q 62.703125 50.203125 56.421875 58.203125 
Q 50.140625 66.21875 39.40625 66.21875 
z
M 39.40625 74.21875 
Q 54.734375 74.21875 63.90625 63.9375 
Q 73.09375 53.65625 73.09375 36.375 
Q 73.09375 19.140625 63.90625 8.859375 
Q 54.734375 -1.421875 39.40625 -1.421875 
Q 24.03125 -1.421875 14.8125 8.828125 
Q 5.609375 19.09375 5.609375 36.375 
Q 5.609375 53.65625 14.8125 63.9375 
Q 24.03125 74.21875 39.40625 74.21875 
z
" id="DejaVuSans-79"/>
     <path d="M 28.609375 0 
L 0.78125 72.90625 
L 11.078125 72.90625 
L 34.1875 11.53125 
L 57.328125 72.90625 
L 67.578125 72.90625 
L 39.796875 0 
z
" id="DejaVuSans-86"/>
     <path d="M 9.8125 72.90625 
L 19.671875 72.90625 
L 19.671875 0 
L 9.8125 0 
z
" id="DejaVuSans-73"/>
     <path d="M 19.671875 64.796875 
L 19.671875 8.109375 
L 31.59375 8.109375 
Q 46.6875 8.109375 53.6875 14.9375 
Q 60.6875 21.78125 60.6875 36.53125 
Q 60.6875 51.171875 53.6875 57.984375 
Q 46.6875 64.796875 31.59375 64.796875 
z
M 9.8125 72.90625 
L 30.078125 72.90625 
Q 51.265625 72.90625 61.171875 64.09375 
Q 71.09375 55.28125 71.09375 36.53125 
Q 71.09375 17.671875 61.125 8.828125 
Q 51.171875 0 30.078125 0 
L 9.8125 0 
z
" id="DejaVuSans-68"/>
     <path d="M 4.890625 31.390625 
L 31.203125 31.390625 
L 31.203125 23.390625 
L 4.890625 23.390625 
z
" id="DejaVuSans-45"/>
     <path d="M 10.984375 1.515625 
L 10.984375 10.5 
Q 14.703125 8.734375 18.5 7.8125 
Q 22.3125 6.890625 25.984375 6.890625 
Q 35.75 6.890625 40.890625 13.453125 
Q 46.046875 20.015625 46.78125 33.40625 
Q 43.953125 29.203125 39.59375 26.953125 
Q 35.25 24.703125 29.984375 24.703125 
Q 19.046875 24.703125 12.671875 31.3125 
Q 6.296875 37.9375 6.296875 49.421875 
Q 6.296875 60.640625 12.9375 67.421875 
Q 19.578125 74.21875 30.609375 74.21875 
Q 43.265625 74.21875 49.921875 64.515625 
Q 56.59375 54.828125 56.59375 36.375 
Q 56.59375 19.140625 48.40625 8.859375 
Q 40.234375 -1.421875 26.421875 -1.421875 
Q 22.703125 -1.421875 18.890625 -0.6875 
Q 15.09375 0.046875 10.984375 1.515625 
z
M 30.609375 32.421875 
Q 37.25 32.421875 41.125 36.953125 
Q 45.015625 41.5 45.015625 49.421875 
Q 45.015625 57.28125 41.125 61.84375 
Q 37.25 66.40625 30.609375 66.40625 
Q 23.96875 66.40625 20.09375 61.84375 
Q 16.21875 57.28125 16.21875 49.421875 
Q 16.21875 41.5 20.09375 36.953125 
Q 23.96875 32.421875 30.609375 32.421875 
z
" id="DejaVuSans-57"/>
     <path id="DejaVuSans-32"/>
     <path d="M 34.1875 63.1875 
L 20.796875 26.90625 
L 47.609375 26.90625 
z
M 28.609375 72.90625 
L 39.796875 72.90625 
L 67.578125 0 
L 57.328125 0 
L 50.6875 18.703125 
L 17.828125 18.703125 
L 11.1875 0 
L 0.78125 0 
z
" id="DejaVuSans-65"/>
     <path d="M 48.78125 52.59375 
L 48.78125 44.1875 
Q 44.96875 46.296875 41.140625 47.34375 
Q 37.3125 48.390625 33.40625 48.390625 
Q 24.65625 48.390625 19.8125 42.84375 
Q 14.984375 37.3125 14.984375 27.296875 
Q 14.984375 17.28125 19.8125 11.734375 
Q 24.65625 6.203125 33.40625 6.203125 
Q 37.3125 6.203125 41.140625 7.25 
Q 44.96875 8.296875 48.78125 10.40625 
L 48.78125 2.09375 
Q 45.015625 0.34375 40.984375 -0.53125 
Q 36.96875 -1.421875 32.421875 -1.421875 
Q 20.0625 -1.421875 12.78125 6.34375 
Q 5.515625 14.109375 5.515625 27.296875 
Q 5.515625 40.671875 12.859375 48.328125 
Q 20.21875 56 33.015625 56 
Q 37.15625 56 41.109375 55.140625 
Q 45.0625 54.296875 48.78125 52.59375 
z
" id="DejaVuSans-99"/>
     <path d="M 18.3125 70.21875 
L 18.3125 54.6875 
L 36.8125 54.6875 
L 36.8125 47.703125 
L 18.3125 47.703125 
L 18.3125 18.015625 
Q 18.3125 11.328125 20.140625 9.421875 
Q 21.96875 7.515625 27.59375 7.515625 
L 36.8125 7.515625 
L 36.8125 0 
L 27.59375 0 
Q 17.1875 0 13.234375 3.875 
Q 9.28125 7.765625 9.28125 18.015625 
L 9.28125 47.703125 
L 2.6875 47.703125 
L 2.6875 54.6875 
L 9.28125 54.6875 
L 9.28125 70.21875 
z
" id="DejaVuSans-116"/>
     <path d="M 9.421875 54.6875 
L 18.40625 54.6875 
L 18.40625 0 
L 9.421875 0 
z
M 9.421875 75.984375 
L 18.40625 75.984375 
L 18.40625 64.59375 
L 9.421875 64.59375 
z
" id="DejaVuSans-105"/>
     <path d="M 2.984375 54.6875 
L 12.5 54.6875 
L 29.59375 8.796875 
L 46.6875 54.6875 
L 56.203125 54.6875 
L 35.6875 0 
L 23.484375 0 
z
" id="DejaVuSans-118"/>
     <path d="M 34.28125 27.484375 
Q 23.390625 27.484375 19.1875 25 
Q 14.984375 22.515625 14.984375 16.5 
Q 14.984375 11.71875 18.140625 8.90625 
Q 21.296875 6.109375 26.703125 6.109375 
Q 34.1875 6.109375 38.703125 11.40625 
Q 43.21875 16.703125 43.21875 25.484375 
L 43.21875 27.484375 
z
M 52.203125 31.203125 
L 52.203125 0 
L 43.21875 0 
L 43.21875 8.296875 
Q 40.140625 3.328125 35.546875 0.953125 
Q 30.953125 -1.421875 24.3125 -1.421875 
Q 15.921875 -1.421875 10.953125 3.296875 
Q 6 8.015625 6 15.921875 
Q 6 25.140625 12.171875 29.828125 
Q 18.359375 34.515625 30.609375 34.515625 
L 43.21875 34.515625 
L 43.21875 35.40625 
Q 43.21875 41.609375 39.140625 45 
Q 35.0625 48.390625 27.6875 48.390625 
Q 23 48.390625 18.546875 47.265625 
Q 14.109375 46.140625 10.015625 43.890625 
L 10.015625 52.203125 
Q 14.9375 54.109375 19.578125 55.046875 
Q 24.21875 56 28.609375 56 
Q 40.484375 56 46.34375 49.84375 
Q 52.203125 43.703125 52.203125 31.203125 
z
" id="DejaVuSans-97"/>
     <path d="M 44.28125 53.078125 
L 44.28125 44.578125 
Q 40.484375 46.53125 36.375 47.5 
Q 32.28125 48.484375 27.875 48.484375 
Q 21.1875 48.484375 17.84375 46.4375 
Q 14.5 44.390625 14.5 40.28125 
Q 14.5 37.15625 16.890625 35.375 
Q 19.28125 33.59375 26.515625 31.984375 
L 29.59375 31.296875 
Q 39.15625 29.25 43.1875 25.515625 
Q 47.21875 21.78125 47.21875 15.09375 
Q 47.21875 7.46875 41.1875 3.015625 
Q 35.15625 -1.421875 24.609375 -1.421875 
Q 20.21875 -1.421875 15.453125 -0.5625 
Q 10.6875 0.296875 5.421875 2 
L 5.421875 11.28125 
Q 10.40625 8.6875 15.234375 7.390625 
Q 20.0625 6.109375 24.8125 6.109375 
Q 31.15625 6.109375 34.5625 8.28125 
Q 37.984375 10.453125 37.984375 14.40625 
Q 37.984375 18.0625 35.515625 20.015625 
Q 33.0625 21.96875 24.703125 23.78125 
L 21.578125 24.515625 
Q 13.234375 26.265625 9.515625 29.90625 
Q 5.8125 33.546875 5.8125 39.890625 
Q 5.8125 47.609375 11.28125 51.796875 
Q 16.75 56 26.8125 56 
Q 31.78125 56 36.171875 55.265625 
Q 40.578125 54.546875 44.28125 53.078125 
z
" id="DejaVuSans-115"/>
     <path d="M 19.671875 64.796875 
L 19.671875 37.40625 
L 32.078125 37.40625 
Q 38.96875 37.40625 42.71875 40.96875 
Q 46.484375 44.53125 46.484375 51.125 
Q 46.484375 57.671875 42.71875 61.234375 
Q 38.96875 64.796875 32.078125 64.796875 
z
M 9.8125 72.90625 
L 32.078125 72.90625 
Q 44.34375 72.90625 50.609375 67.359375 
Q 56.890625 61.8125 56.890625 51.125 
Q 56.890625 40.328125 50.609375 34.8125 
Q 44.34375 29.296875 32.078125 29.296875 
L 19.671875 29.296875 
L 19.671875 0 
L 9.8125 0 
z
" id="DejaVuSans-80"/>
     <path d="M 30.609375 48.390625 
Q 23.390625 48.390625 19.1875 42.75 
Q 14.984375 37.109375 14.984375 27.296875 
Q 14.984375 17.484375 19.15625 11.84375 
Q 23.34375 6.203125 30.609375 6.203125 
Q 37.796875 6.203125 41.984375 11.859375 
Q 46.1875 17.53125 46.1875 27.296875 
Q 46.1875 37.015625 41.984375 42.703125 
Q 37.796875 48.390625 30.609375 48.390625 
z
M 30.609375 56 
Q 42.328125 56 49.015625 48.375 
Q 55.71875 40.765625 55.71875 27.296875 
Q 55.71875 13.875 49.015625 6.21875 
Q 42.328125 -1.421875 30.609375 -1.421875 
Q 18.84375 -1.421875 12.171875 6.21875 
Q 5.515625 13.875 5.515625 27.296875 
Q 5.515625 40.765625 12.171875 48.375 
Q 18.84375 56 30.609375 56 
z
" id="DejaVuSans-111"/>
     <path d="M 9.421875 75.984375 
L 18.40625 75.984375 
L 18.40625 0 
L 9.421875 0 
z
" id="DejaVuSans-108"/>
     <path d="M 32.171875 -5.078125 
Q 28.375 -14.84375 24.75 -17.8125 
Q 21.140625 -20.796875 15.09375 -20.796875 
L 7.90625 -20.796875 
L 7.90625 -13.28125 
L 13.1875 -13.28125 
Q 16.890625 -13.28125 18.9375 -11.515625 
Q 21 -9.765625 23.484375 -3.21875 
L 25.09375 0.875 
L 2.984375 54.6875 
L 12.5 54.6875 
L 29.59375 11.921875 
L 46.6875 54.6875 
L 56.203125 54.6875 
z
" id="DejaVuSans-121"/>
     <path d="M 54.890625 33.015625 
L 54.890625 0 
L 45.90625 0 
L 45.90625 32.71875 
Q 45.90625 40.484375 42.875 44.328125 
Q 39.84375 48.1875 33.796875 48.1875 
Q 26.515625 48.1875 22.3125 43.546875 
Q 18.109375 38.921875 18.109375 30.90625 
L 18.109375 0 
L 9.078125 0 
L 9.078125 54.6875 
L 18.109375 54.6875 
L 18.109375 46.1875 
Q 21.34375 51.125 25.703125 53.5625 
Q 30.078125 56 35.796875 56 
Q 45.21875 56 50.046875 50.171875 
Q 54.890625 44.34375 54.890625 33.015625 
z
" id="DejaVuSans-110"/>
     <path d="M 52 44.1875 
Q 55.375 50.25 60.0625 53.125 
Q 64.75 56 71.09375 56 
Q 79.640625 56 84.28125 50.015625 
Q 88.921875 44.046875 88.921875 33.015625 
L 88.921875 0 
L 79.890625 0 
L 79.890625 32.71875 
Q 79.890625 40.578125 77.09375 44.375 
Q 74.3125 48.1875 68.609375 48.1875 
Q 61.625 48.1875 57.5625 43.546875 
Q 53.515625 38.921875 53.515625 30.90625 
L 53.515625 0 
L 44.484375 0 
L 44.484375 32.71875 
Q 44.484375 40.625 41.703125 44.40625 
Q 38.921875 48.1875 33.109375 48.1875 
Q 26.21875 48.1875 22.15625 43.53125 
Q 18.109375 38.875 18.109375 30.90625 
L 18.109375 0 
L 9.078125 0 
L 9.078125 54.6875 
L 18.109375 54.6875 
L 18.109375 46.1875 
Q 21.1875 51.21875 25.484375 53.609375 
Q 29.78125 56 35.6875 56 
Q 41.65625 56 45.828125 52.96875 
Q 50 49.953125 52 44.1875 
z
" id="DejaVuSans-109"/>
     <path d="M 19.671875 34.8125 
L 19.671875 8.109375 
L 35.5 8.109375 
Q 43.453125 8.109375 47.28125 11.40625 
Q 51.125 14.703125 51.125 21.484375 
Q 51.125 28.328125 47.28125 31.5625 
Q 43.453125 34.8125 35.5 34.8125 
z
M 19.671875 64.796875 
L 19.671875 42.828125 
L 34.28125 42.828125 
Q 41.5 42.828125 45.03125 45.53125 
Q 48.578125 48.25 48.578125 53.8125 
Q 48.578125 59.328125 45.03125 62.0625 
Q 41.5 64.796875 34.28125 64.796875 
z
M 9.8125 72.90625 
L 35.015625 72.90625 
Q 46.296875 72.90625 52.390625 68.21875 
Q 58.5 63.53125 58.5 54.890625 
Q 58.5 48.1875 55.375 44.234375 
Q 52.25 40.28125 46.1875 39.3125 
Q 53.46875 37.75 57.5 32.78125 
Q 61.53125 27.828125 61.53125 20.40625 
Q 61.53125 10.640625 54.890625 5.3125 
Q 48.25 0 35.984375 0 
L 9.8125 0 
z
" id="DejaVuSans-66"/>
     <path d="M 9.8125 72.90625 
L 51.703125 72.90625 
L 51.703125 64.59375 
L 19.671875 64.59375 
L 19.671875 43.109375 
L 48.578125 43.109375 
L 48.578125 34.8125 
L 19.671875 34.8125 
L 19.671875 0 
L 9.8125 0 
z
" id="DejaVuSans-70"/>
     <path d="M 9.8125 72.90625 
L 19.671875 72.90625 
L 19.671875 8.296875 
L 55.171875 8.296875 
L 55.171875 0 
L 9.8125 0 
z
" id="DejaVuSans-76"/>
    </defs>
    <g transform="translate(99.4625 20.88)scale(0.12 -0.12)">
     <use xlink:href="#DejaVuSans-67"/>
     <use x="69.824219" xlink:href="#DejaVuSans-79"/>
     <use x="146.785156" xlink:href="#DejaVuSans-86"/>
     <use x="215.193359" xlink:href="#DejaVuSans-73"/>
     <use x="244.685547" xlink:href="#DejaVuSans-68"/>
     <use x="321.6875" xlink:href="#DejaVuSans-45"/>
     <use x="357.771484" xlink:href="#DejaVuSans-49"/>
     <use x="421.394531" xlink:href="#DejaVuSans-57"/>
     <use x="485.017578" xlink:href="#DejaVuSans-32"/>
     <use x="516.804688" xlink:href="#DejaVuSans-65"/>
     <use x="583.462891" xlink:href="#DejaVuSans-99"/>
     <use x="638.443359" xlink:href="#DejaVuSans-116"/>
     <use x="677.652344" xlink:href="#DejaVuSans-105"/>
     <use x="705.435547" xlink:href="#DejaVuSans-118"/>
     <use x="764.615234" xlink:href="#DejaVuSans-101"/>
     <use x="826.138672" xlink:href="#DejaVuSans-32"/>
     <use x="857.925781" xlink:href="#DejaVuSans-67"/>
     <use x="927.75" xlink:href="#DejaVuSans-97"/>
     <use x="989.029297" xlink:href="#DejaVuSans-115"/>
     <use x="1041.128906" xlink:href="#DejaVuSans-101"/>
     <use x="1102.652344" xlink:href="#DejaVuSans-115"/>
     <use x="1154.751953" xlink:href="#DejaVuSans-32"/>
     <use x="1186.539062" xlink:href="#DejaVuSans-80"/>
     <use x="1243.216797" xlink:href="#DejaVuSans-111"/>
     <use x="1304.398438" xlink:href="#DejaVuSans-108"/>
     <use x="1332.181641" xlink:href="#DejaVuSans-121"/>
     <use x="1391.361328" xlink:href="#DejaVuSans-110"/>
     <use x="1454.740234" xlink:href="#DejaVuSans-111"/>
     <use x="1515.921875" xlink:href="#DejaVuSans-109"/>
     <use x="1613.333984" xlink:href="#DejaVuSans-105"/>
     <use x="1641.117188" xlink:href="#DejaVuSans-97"/>
     <use x="1702.396484" xlink:href="#DejaVuSans-108"/>
     <use x="1730.179688" xlink:href="#DejaVuSans-32"/>
     <use x="1761.966797" xlink:href="#DejaVuSans-66"/>
     <use x="1830.570312" xlink:href="#DejaVuSans-101"/>
     <use x="1892.09375" xlink:href="#DejaVuSans-115"/>
     <use x="1944.193359" xlink:href="#DejaVuSans-116"/>
     <use x="1983.402344" xlink:href="#DejaVuSans-32"/>
     <use x="2015.189453" xlink:href="#DejaVuSans-70"/>
     <use x="2065.458984" xlink:href="#DejaVuSans-105"/>
     <use x="2093.242188" xlink:href="#DejaVuSans-116"/>
     <use x="2132.451172" xlink:href="#DejaVuSans-32"/>
     <use x="2164.238281" xlink:href="#DejaVuSans-76"/>
     <use x="2219.951172" xlink:href="#DejaVuSans-105"/>
     <use x="2247.734375" xlink:href="#DejaVuSans-110"/>
     <use x="2311.113281" xlink:href="#DejaVuSans-101"/>
    </g>
   </g>
   <g id="legend_1">
    <g id="patch_7">
     <path d="M 40.64 64.23625 
L 136.435313 64.23625 
Q 138.435313 64.23625 138.435313 62.23625 
L 138.435313 33.88 
Q 138.435313 31.88 136.435313 31.88 
L 40.64 31.88 
Q 38.64 31.88 38.64 33.88 
L 38.64 62.23625 
Q 38.64 64.23625 40.64 64.23625 
z
" style="fill:#ffffff;opacity:0.8;stroke:#cccccc;stroke-linejoin:miter;"/>
    </g>
    <g id="line2d_13">
     <path d="M 42.64 39.978437 
L 62.64 39.978437 
" style="fill:none;stroke:#1f77b4;stroke-dasharray:5.55,2.4;stroke-dashoffset:0;stroke-width:1.5;"/>
    </g>
    <g id="line2d_14"/>
    <g id="text_14">
     <!-- best fit line -->
     <defs>
      <path d="M 48.6875 27.296875 
Q 48.6875 37.203125 44.609375 42.84375 
Q 40.53125 48.484375 33.40625 48.484375 
Q 26.265625 48.484375 22.1875 42.84375 
Q 18.109375 37.203125 18.109375 27.296875 
Q 18.109375 17.390625 22.1875 11.75 
Q 26.265625 6.109375 33.40625 6.109375 
Q 40.53125 6.109375 44.609375 11.75 
Q 48.6875 17.390625 48.6875 27.296875 
z
M 18.109375 46.390625 
Q 20.953125 51.265625 25.265625 53.625 
Q 29.59375 56 35.59375 56 
Q 45.5625 56 51.78125 48.09375 
Q 58.015625 40.1875 58.015625 27.296875 
Q 58.015625 14.40625 51.78125 6.484375 
Q 45.5625 -1.421875 35.59375 -1.421875 
Q 29.59375 -1.421875 25.265625 0.953125 
Q 20.953125 3.328125 18.109375 8.203125 
L 18.109375 0 
L 9.078125 0 
L 9.078125 75.984375 
L 18.109375 75.984375 
z
" id="DejaVuSans-98"/>
      <path d="M 37.109375 75.984375 
L 37.109375 68.5 
L 28.515625 68.5 
Q 23.6875 68.5 21.796875 66.546875 
Q 19.921875 64.59375 19.921875 59.515625 
L 19.921875 54.6875 
L 34.71875 54.6875 
L 34.71875 47.703125 
L 19.921875 47.703125 
L 19.921875 0 
L 10.890625 0 
L 10.890625 47.703125 
L 2.296875 47.703125 
L 2.296875 54.6875 
L 10.890625 54.6875 
L 10.890625 58.5 
Q 10.890625 67.625 15.140625 71.796875 
Q 19.390625 75.984375 28.609375 75.984375 
z
" id="DejaVuSans-102"/>
     </defs>
     <g transform="translate(70.64 43.478437)scale(0.1 -0.1)">
      <use xlink:href="#DejaVuSans-98"/>
      <use x="63.476562" xlink:href="#DejaVuSans-101"/>
      <use x="125" xlink:href="#DejaVuSans-115"/>
      <use x="177.099609" xlink:href="#DejaVuSans-116"/>
      <use x="216.308594" xlink:href="#DejaVuSans-32"/>
      <use x="248.095703" xlink:href="#DejaVuSans-102"/>
      <use x="283.300781" xlink:href="#DejaVuSans-105"/>
      <use x="311.083984" xlink:href="#DejaVuSans-116"/>
      <use x="350.292969" xlink:href="#DejaVuSans-32"/>
      <use x="382.080078" xlink:href="#DejaVuSans-108"/>
      <use x="409.863281" xlink:href="#DejaVuSans-105"/>
      <use x="437.646484" xlink:href="#DejaVuSans-110"/>
      <use x="501.025391" xlink:href="#DejaVuSans-101"/>
     </g>
    </g>
    <g id="PathCollection_2">
     <g>
      <use style="fill:#ff0000;stroke:#ff0000;" x="52.64" xlink:href="#mdec620cc8c" y="55.531563"/>
     </g>
    </g>
    <g id="text_15">
     <!-- Active Cases -->
     <g transform="translate(70.64 58.156563)scale(0.1 -0.1)">
      <use xlink:href="#DejaVuSans-65"/>
      <use x="66.658203" xlink:href="#DejaVuSans-99"/>
      <use x="121.638672" xlink:href="#DejaVuSans-116"/>
      <use x="160.847656" xlink:href="#DejaVuSans-105"/>
      <use x="188.630859" xlink:href="#DejaVuSans-118"/>
      <use x="247.810547" xlink:href="#DejaVuSans-101"/>
      <use x="309.333984" xlink:href="#DejaVuSans-32"/>
      <use x="341.121094" xlink:href="#DejaVuSans-67"/>
      <use x="410.945312" xlink:href="#DejaVuSans-97"/>
      <use x="472.224609" xlink:href="#DejaVuSans-115"/>
      <use x="524.324219" xlink:href="#DejaVuSans-101"/>
      <use x="585.847656" xlink:href="#DejaVuSans-115"/>
     </g>
    </g>
   </g>
  </g>
 </g>
 <defs>
  <clipPath id="pa4e48df0a3">
   <rect height="290.84" width="416.36" x="33.64" y="26.88"/>
  </clipPath>
 </defs>
</svg>
