<?xml version="1.0" encoding="utf-8" standalone="no"?>
<!DOCTYPE svg PUBLIC "-//W3C//DTD SVG 1.1//EN"
  "http://www.w3.org/Graphics/SVG/1.1/DTD/svg11.dtd">
<!-- Created with matplotlib (https://matplotlib.org/) -->
<svg height="345.6pt" version="1.1" viewBox="0 0 460.8 345.6" width="460.8pt" xmlns="http://www.w3.org/2000/svg" xmlns:xlink="http://www.w3.org/1999/xlink">
 <defs>
  <style type="text/css">
*{stroke-linecap:butt;stroke-linejoin:round;}
  </style>
 </defs>
 <g id="figure_1">
  <g id="patch_1">
   <path d="M 0 345.6 
L 460.8 345.6 
L 460.8 0 
L 0 0 
z
" style="fill:#ffffff;"/>
  </g>
  <g id="axes_1">
   <g id="patch_2">
    <path d="M 24.19 317.72 
L 450 317.72 
L 450 26.88 
L 24.19 26.88 
z
" style="fill:#ffffff;"/>
   </g>
   <g id="PathCollection_1">
    <defs>
     <path d="M 0 0.707107 
C 0.187527 0.707107 0.367398 0.632602 0.5 0.5 
C 0.632602 0.367398 0.707107 0.187527 0.707107 0 
C 0.707107 -0.187527 0.632602 -0.367398 0.5 -0.5 
C 0.367398 -0.632602 0.187527 -0.707107 0 -0.707107 
C -0.187527 -0.707107 -0.367398 -0.632602 -0.5 -0.5 
C -0.632602 -0.367398 -0.707107 -0.187527 -0.707107 0 
C -0.707107 0.187527 -0.632602 0.367398 -0.5 0.5 
C -0.367398 0.632602 -0.187527 0.707107 0 0.707107 
z
" id="mfaae4fea7f" style="stroke:#ff0000;"/>
    </defs>
    <g clip-path="url(#pa9370779d1)">
     <use style="fill:#ff0000;stroke:#ff0000;" x="43.545" xlink:href="#mfaae4fea7f" y="298.905306"/>
     <use style="fill:#ff0000;stroke:#ff0000;" x="47.455101" xlink:href="#mfaae4fea7f" y="298.899776"/>
     <use style="fill:#ff0000;stroke:#ff0000;" x="51.365202" xlink:href="#mfaae4fea7f" y="298.883745"/>
     <use style="fill:#ff0000;stroke:#ff0000;" x="55.275303" xlink:href="#mfaae4fea7f" y="298.856208"/>
     <use style="fill:#ff0000;stroke:#ff0000;" x="59.185404" xlink:href="#mfaae4fea7f" y="298.818002"/>
     <use style="fill:#ff0000;stroke:#ff0000;" x="63.095505" xlink:href="#mfaae4fea7f" y="298.772813"/>
     <use style="fill:#ff0000;stroke:#ff0000;" x="67.005606" xlink:href="#mfaae4fea7f" y="298.624737"/>
     <use style="fill:#ff0000;stroke:#ff0000;" x="70.915707" xlink:href="#mfaae4fea7f" y="298.591893"/>
     <use style="fill:#ff0000;stroke:#ff0000;" x="74.825808" xlink:href="#mfaae4fea7f" y="298.476381"/>
     <use style="fill:#ff0000;stroke:#ff0000;" x="78.735909" xlink:href="#mfaae4fea7f" y="298.381815"/>
     <use style="fill:#ff0000;stroke:#ff0000;" x="82.64601" xlink:href="#mfaae4fea7f" y="298.263901"/>
     <use style="fill:#ff0000;stroke:#ff0000;" x="86.556111" xlink:href="#mfaae4fea7f" y="297.998637"/>
     <use style="fill:#ff0000;stroke:#ff0000;" x="90.466212" xlink:href="#mfaae4fea7f" y="297.825815"/>
     <use style="fill:#ff0000;stroke:#ff0000;" x="94.376313" xlink:href="#mfaae4fea7f" y="297.601773"/>
     <use style="fill:#ff0000;stroke:#ff0000;" x="98.286414" xlink:href="#mfaae4fea7f" y="297.392701"/>
     <use style="fill:#ff0000;stroke:#ff0000;" x="102.196515" xlink:href="#mfaae4fea7f" y="297.216249"/>
     <use style="fill:#ff0000;stroke:#ff0000;" x="106.106616" xlink:href="#mfaae4fea7f" y="297.015332"/>
     <use style="fill:#ff0000;stroke:#ff0000;" x="110.016717" xlink:href="#mfaae4fea7f" y="296.862898"/>
     <use style="fill:#ff0000;stroke:#ff0000;" x="113.926818" xlink:href="#mfaae4fea7f" y="296.693652"/>
     <use style="fill:#ff0000;stroke:#ff0000;" x="117.836919" xlink:href="#mfaae4fea7f" y="296.547753"/>
     <use style="fill:#ff0000;stroke:#ff0000;" x="121.74702" xlink:href="#mfaae4fea7f" y="296.433805"/>
     <use style="fill:#ff0000;stroke:#ff0000;" x="125.657121" xlink:href="#mfaae4fea7f" y="296.410401"/>
     <use style="fill:#ff0000;stroke:#ff0000;" x="129.567222" xlink:href="#mfaae4fea7f" y="295.564336"/>
     <use style="fill:#ff0000;stroke:#ff0000;" x="133.477323" xlink:href="#mfaae4fea7f" y="295.200317"/>
     <use style="fill:#ff0000;stroke:#ff0000;" x="137.387424" xlink:href="#mfaae4fea7f" y="295.080504"/>
     <use style="fill:#ff0000;stroke:#ff0000;" x="141.297525" xlink:href="#mfaae4fea7f" y="294.957954"/>
     <use style="fill:#ff0000;stroke:#ff0000;" x="145.207626" xlink:href="#mfaae4fea7f" y="294.844341"/>
     <use style="fill:#ff0000;stroke:#ff0000;" x="149.117727" xlink:href="#mfaae4fea7f" y="294.739442"/>
     <use style="fill:#ff0000;stroke:#ff0000;" x="153.027828" xlink:href="#mfaae4fea7f" y="294.711346"/>
     <use style="fill:#ff0000;stroke:#ff0000;" x="156.937929" xlink:href="#mfaae4fea7f" y="294.680177"/>
     <use style="fill:#ff0000;stroke:#ff0000;" x="160.84803" xlink:href="#mfaae4fea7f" y="294.645434"/>
     <use style="fill:#ff0000;stroke:#ff0000;" x="164.758131" xlink:href="#mfaae4fea7f" y="294.547517"/>
     <use style="fill:#ff0000;stroke:#ff0000;" x="168.668232" xlink:href="#mfaae4fea7f" y="294.525956"/>
     <use style="fill:#ff0000;stroke:#ff0000;" x="172.578333" xlink:href="#mfaae4fea7f" y="294.492275"/>
     <use style="fill:#ff0000;stroke:#ff0000;" x="176.488434" xlink:href="#mfaae4fea7f" y="294.445076"/>
     <use style="fill:#ff0000;stroke:#ff0000;" x="180.398535" xlink:href="#mfaae4fea7f" y="294.390224"/>
     <use style="fill:#ff0000;stroke:#ff0000;" x="184.308636" xlink:href="#mfaae4fea7f" y="294.31437"/>
     <use style="fill:#ff0000;stroke:#ff0000;" x="188.218737" xlink:href="#mfaae4fea7f" y="294.23807"/>
     <use style="fill:#ff0000;stroke:#ff0000;" x="192.128838" xlink:href="#mfaae4fea7f" y="294.131998"/>
     <use style="fill:#ff0000;stroke:#ff0000;" x="196.038939" xlink:href="#mfaae4fea7f" y="294.000287"/>
     <use style="fill:#ff0000;stroke:#ff0000;" x="199.94904" xlink:href="#mfaae4fea7f" y="293.892092"/>
     <use style="fill:#ff0000;stroke:#ff0000;" x="203.859141" xlink:href="#mfaae4fea7f" y="293.750551"/>
     <use style="fill:#ff0000;stroke:#ff0000;" x="207.769242" xlink:href="#mfaae4fea7f" y="293.623197"/>
     <use style="fill:#ff0000;stroke:#ff0000;" x="211.679343" xlink:href="#mfaae4fea7f" y="293.468697"/>
     <use style="fill:#ff0000;stroke:#ff0000;" x="215.589444" xlink:href="#mfaae4fea7f" y="293.250017"/>
     <use style="fill:#ff0000;stroke:#ff0000;" x="219.499545" xlink:href="#mfaae4fea7f" y="293.02402"/>
     <use style="fill:#ff0000;stroke:#ff0000;" x="223.409646" xlink:href="#mfaae4fea7f" y="292.802045"/>
     <use style="fill:#ff0000;stroke:#ff0000;" x="227.319747" xlink:href="#mfaae4fea7f" y="292.59152"/>
     <use style="fill:#ff0000;stroke:#ff0000;" x="231.229848" xlink:href="#mfaae4fea7f" y="292.31056"/>
     <use style="fill:#ff0000;stroke:#ff0000;" x="235.139949" xlink:href="#mfaae4fea7f" y="291.905318"/>
     <use style="fill:#ff0000;stroke:#ff0000;" x="239.050051" xlink:href="#mfaae4fea7f" y="291.76696"/>
     <use style="fill:#ff0000;stroke:#ff0000;" x="242.960152" xlink:href="#mfaae4fea7f" y="290.825604"/>
     <use style="fill:#ff0000;stroke:#ff0000;" x="246.870253" xlink:href="#mfaae4fea7f" y="290.216987"/>
     <use style="fill:#ff0000;stroke:#ff0000;" x="250.780354" xlink:href="#mfaae4fea7f" y="289.582843"/>
     <use style="fill:#ff0000;stroke:#ff0000;" x="254.690455" xlink:href="#mfaae4fea7f" y="288.794143"/>
     <use style="fill:#ff0000;stroke:#ff0000;" x="258.600556" xlink:href="#mfaae4fea7f" y="287.926797"/>
     <use style="fill:#ff0000;stroke:#ff0000;" x="262.510657" xlink:href="#mfaae4fea7f" y="286.937069"/>
     <use style="fill:#ff0000;stroke:#ff0000;" x="266.420758" xlink:href="#mfaae4fea7f" y="285.387095"/>
     <use style="fill:#ff0000;stroke:#ff0000;" x="270.330859" xlink:href="#mfaae4fea7f" y="283.731608"/>
     <use style="fill:#ff0000;stroke:#ff0000;" x="274.24096" xlink:href="#mfaae4fea7f" y="281.927486"/>
     <use style="fill:#ff0000;stroke:#ff0000;" x="278.151061" xlink:href="#mfaae4fea7f" y="280.115152"/>
     <use style="fill:#ff0000;stroke:#ff0000;" x="282.061162" xlink:href="#mfaae4fea7f" y="277.809267"/>
     <use style="fill:#ff0000;stroke:#ff0000;" x="285.971263" xlink:href="#mfaae4fea7f" y="275.585603"/>
     <use style="fill:#ff0000;stroke:#ff0000;" x="289.881364" xlink:href="#mfaae4fea7f" y="272.814654"/>
     <use style="fill:#ff0000;stroke:#ff0000;" x="293.791465" xlink:href="#mfaae4fea7f" y="269.354988"/>
     <use style="fill:#ff0000;stroke:#ff0000;" x="297.701566" xlink:href="#mfaae4fea7f" y="265.796903"/>
     <use style="fill:#ff0000;stroke:#ff0000;" x="301.611667" xlink:href="#mfaae4fea7f" y="262.032035"/>
     <use style="fill:#ff0000;stroke:#ff0000;" x="305.521768" xlink:href="#mfaae4fea7f" y="258.711509"/>
     <use style="fill:#ff0000;stroke:#ff0000;" x="309.431869" xlink:href="#mfaae4fea7f" y="255.234472"/>
     <use style="fill:#ff0000;stroke:#ff0000;" x="313.34197" xlink:href="#mfaae4fea7f" y="251.03973"/>
     <use style="fill:#ff0000;stroke:#ff0000;" x="317.252071" xlink:href="#mfaae4fea7f" y="246.84387"/>
     <use style="fill:#ff0000;stroke:#ff0000;" x="321.162172" xlink:href="#mfaae4fea7f" y="242.327224"/>
     <use style="fill:#ff0000;stroke:#ff0000;" x="325.072273" xlink:href="#mfaae4fea7f" y="237.721766"/>
     <use style="fill:#ff0000;stroke:#ff0000;" x="328.982374" xlink:href="#mfaae4fea7f" y="232.052792"/>
     <use style="fill:#ff0000;stroke:#ff0000;" x="332.892475" xlink:href="#mfaae4fea7f" y="227.879889"/>
     <use style="fill:#ff0000;stroke:#ff0000;" x="336.802576" xlink:href="#mfaae4fea7f" y="223.803117"/>
     <use style="fill:#ff0000;stroke:#ff0000;" x="340.712677" xlink:href="#mfaae4fea7f" y="219.278986"/>
     <use style="fill:#ff0000;stroke:#ff0000;" x="344.622778" xlink:href="#mfaae4fea7f" y="214.530701"/>
     <use style="fill:#ff0000;stroke:#ff0000;" x="348.532879" xlink:href="#mfaae4fea7f" y="209.82498"/>
     <use style="fill:#ff0000;stroke:#ff0000;" x="352.44298" xlink:href="#mfaae4fea7f" y="204.442105"/>
    </g>
   </g>
   <g id="matplotlib.axis_1">
    <g id="xtick_1">
     <g id="line2d_1">
      <defs>
       <path d="M 0 0 
L 0 3.5 
" id="mee5c630f62" style="stroke:#000000;stroke-width:0.8;"/>
      </defs>
      <g>
       <use style="stroke:#000000;stroke-width:0.8;" x="43.545" xlink:href="#mee5c630f62" y="317.72"/>
      </g>
     </g>
     <g id="text_1">
      <!-- 1/22/20 -->
      <defs>
       <path d="M 12.40625 8.296875 
L 28.515625 8.296875 
L 28.515625 63.921875 
L 10.984375 60.40625 
L 10.984375 69.390625 
L 28.421875 72.90625 
L 38.28125 72.90625 
L 38.28125 8.296875 
L 54.390625 8.296875 
L 54.390625 0 
L 12.40625 0 
z
" id="DejaVuSans-49"/>
       <path d="M 25.390625 72.90625 
L 33.6875 72.90625 
L 8.296875 -9.28125 
L 0 -9.28125 
z
" id="DejaVuSans-47"/>
       <path d="M 19.1875 8.296875 
L 53.609375 8.296875 
L 53.609375 0 
L 7.328125 0 
L 7.328125 8.296875 
Q 12.9375 14.109375 22.625 23.890625 
Q 32.328125 33.6875 34.8125 36.53125 
Q 39.546875 41.84375 41.421875 45.53125 
Q 43.3125 49.21875 43.3125 52.78125 
Q 43.3125 58.59375 39.234375 62.25 
Q 35.15625 65.921875 28.609375 65.921875 
Q 23.96875 65.921875 18.8125 64.3125 
Q 13.671875 62.703125 7.8125 59.421875 
L 7.8125 69.390625 
Q 13.765625 71.78125 18.9375 73 
Q 24.125 74.21875 28.421875 74.21875 
Q 39.75 74.21875 46.484375 68.546875 
Q 53.21875 62.890625 53.21875 53.421875 
Q 53.21875 48.921875 51.53125 44.890625 
Q 49.859375 40.875 45.40625 35.40625 
Q 44.1875 33.984375 37.640625 27.21875 
Q 31.109375 20.453125 19.1875 8.296875 
z
" id="DejaVuSans-50"/>
       <path d="M 31.78125 66.40625 
Q 24.171875 66.40625 20.328125 58.90625 
Q 16.5 51.421875 16.5 36.375 
Q 16.5 21.390625 20.328125 13.890625 
Q 24.171875 6.390625 31.78125 6.390625 
Q 39.453125 6.390625 43.28125 13.890625 
Q 47.125 21.390625 47.125 36.375 
Q 47.125 51.421875 43.28125 58.90625 
Q 39.453125 66.40625 31.78125 66.40625 
z
M 31.78125 74.21875 
Q 44.046875 74.21875 50.515625 64.515625 
Q 56.984375 54.828125 56.984375 36.375 
Q 56.984375 17.96875 50.515625 8.265625 
Q 44.046875 -1.421875 31.78125 -1.421875 
Q 19.53125 -1.421875 13.0625 8.265625 
Q 6.59375 17.96875 6.59375 36.375 
Q 6.59375 54.828125 13.0625 64.515625 
Q 19.53125 74.21875 31.78125 74.21875 
z
" id="DejaVuSans-48"/>
      </defs>
      <g transform="translate(24.27 332.318437)scale(0.1 -0.1)">
       <use xlink:href="#DejaVuSans-49"/>
       <use x="63.623047" xlink:href="#DejaVuSans-47"/>
       <use x="97.314453" xlink:href="#DejaVuSans-50"/>
       <use x="160.9375" xlink:href="#DejaVuSans-50"/>
       <use x="224.560547" xlink:href="#DejaVuSans-47"/>
       <use x="258.251953" xlink:href="#DejaVuSans-50"/>
       <use x="321.875" xlink:href="#DejaVuSans-48"/>
      </g>
     </g>
    </g>
    <g id="xtick_2">
     <g id="line2d_2">
      <g>
       <use style="stroke:#000000;stroke-width:0.8;" x="121.74702" xlink:href="#mee5c630f62" y="317.72"/>
      </g>
     </g>
     <g id="text_2">
      <!-- 2/11/20 -->
      <g transform="translate(102.47202 332.318437)scale(0.1 -0.1)">
       <use xlink:href="#DejaVuSans-50"/>
       <use x="63.623047" xlink:href="#DejaVuSans-47"/>
       <use x="97.314453" xlink:href="#DejaVuSans-49"/>
       <use x="160.9375" xlink:href="#DejaVuSans-49"/>
       <use x="224.560547" xlink:href="#DejaVuSans-47"/>
       <use x="258.251953" xlink:href="#DejaVuSans-50"/>
       <use x="321.875" xlink:href="#DejaVuSans-48"/>
      </g>
     </g>
    </g>
    <g id="xtick_3">
     <g id="line2d_3">
      <g>
       <use style="stroke:#000000;stroke-width:0.8;" x="199.94904" xlink:href="#mee5c630f62" y="317.72"/>
      </g>
     </g>
     <g id="text_3">
      <!-- 3/2/20 -->
      <defs>
       <path d="M 40.578125 39.3125 
Q 47.65625 37.796875 51.625 33 
Q 55.609375 28.21875 55.609375 21.1875 
Q 55.609375 10.40625 48.1875 4.484375 
Q 40.765625 -1.421875 27.09375 -1.421875 
Q 22.515625 -1.421875 17.65625 -0.515625 
Q 12.796875 0.390625 7.625 2.203125 
L 7.625 11.71875 
Q 11.71875 9.328125 16.59375 8.109375 
Q 21.484375 6.890625 26.8125 6.890625 
Q 36.078125 6.890625 40.9375 10.546875 
Q 45.796875 14.203125 45.796875 21.1875 
Q 45.796875 27.640625 41.28125 31.265625 
Q 36.765625 34.90625 28.71875 34.90625 
L 20.21875 34.90625 
L 20.21875 43.015625 
L 29.109375 43.015625 
Q 36.375 43.015625 40.234375 45.921875 
Q 44.09375 48.828125 44.09375 54.296875 
Q 44.09375 59.90625 40.109375 62.90625 
Q 36.140625 65.921875 28.71875 65.921875 
Q 24.65625 65.921875 20.015625 65.03125 
Q 15.375 64.15625 9.8125 62.3125 
L 9.8125 71.09375 
Q 15.4375 72.65625 20.34375 73.4375 
Q 25.25 74.21875 29.59375 74.21875 
Q 40.828125 74.21875 47.359375 69.109375 
Q 53.90625 64.015625 53.90625 55.328125 
Q 53.90625 49.265625 50.4375 45.09375 
Q 46.96875 40.921875 40.578125 39.3125 
z
" id="DejaVuSans-51"/>
      </defs>
      <g transform="translate(183.85529 332.318437)scale(0.1 -0.1)">
       <use xlink:href="#DejaVuSans-51"/>
       <use x="63.623047" xlink:href="#DejaVuSans-47"/>
       <use x="97.314453" xlink:href="#DejaVuSans-50"/>
       <use x="160.9375" xlink:href="#DejaVuSans-47"/>
       <use x="194.628906" xlink:href="#DejaVuSans-50"/>
       <use x="258.251953" xlink:href="#DejaVuSans-48"/>
      </g>
     </g>
    </g>
    <g id="xtick_4">
     <g id="line2d_4">
      <g>
       <use style="stroke:#000000;stroke-width:0.8;" x="278.151061" xlink:href="#mee5c630f62" y="317.72"/>
      </g>
     </g>
     <g id="text_4">
      <!-- 3/22/20 -->
      <g transform="translate(258.876061 332.318437)scale(0.1 -0.1)">
       <use xlink:href="#DejaVuSans-51"/>
       <use x="63.623047" xlink:href="#DejaVuSans-47"/>
       <use x="97.314453" xlink:href="#DejaVuSans-50"/>
       <use x="160.9375" xlink:href="#DejaVuSans-50"/>
       <use x="224.560547" xlink:href="#DejaVuSans-47"/>
       <use x="258.251953" xlink:href="#DejaVuSans-50"/>
       <use x="321.875" xlink:href="#DejaVuSans-48"/>
      </g>
     </g>
    </g>
    <g id="xtick_5">
     <g id="line2d_5">
      <g>
       <use style="stroke:#000000;stroke-width:0.8;" x="356.353081" xlink:href="#mee5c630f62" y="317.72"/>
      </g>
     </g>
     <g id="text_5">
      <!-- 04/11/20 -->
      <defs>
       <path d="M 37.796875 64.3125 
L 12.890625 25.390625 
L 37.796875 25.390625 
z
M 35.203125 72.90625 
L 47.609375 72.90625 
L 47.609375 25.390625 
L 58.015625 25.390625 
L 58.015625 17.1875 
L 47.609375 17.1875 
L 47.609375 0 
L 37.796875 0 
L 37.796875 17.1875 
L 4.890625 17.1875 
L 4.890625 26.703125 
z
" id="DejaVuSans-52"/>
      </defs>
      <g transform="translate(333.896831 332.318437)scale(0.1 -0.1)">
       <use xlink:href="#DejaVuSans-48"/>
       <use x="63.623047" xlink:href="#DejaVuSans-52"/>
       <use x="127.246094" xlink:href="#DejaVuSans-47"/>
       <use x="160.9375" xlink:href="#DejaVuSans-49"/>
       <use x="224.560547" xlink:href="#DejaVuSans-49"/>
       <use x="288.183594" xlink:href="#DejaVuSans-47"/>
       <use x="321.875" xlink:href="#DejaVuSans-50"/>
       <use x="385.498047" xlink:href="#DejaVuSans-48"/>
      </g>
     </g>
    </g>
   </g>
   <g id="matplotlib.axis_2">
    <g id="ytick_1">
     <g id="line2d_6">
      <defs>
       <path d="M 0 0 
L -3.5 0 
" id="mcad1fae381" style="stroke:#000000;stroke-width:0.8;"/>
      </defs>
      <g>
       <use style="stroke:#000000;stroke-width:0.8;" x="24.19" xlink:href="#mcad1fae381" y="298.936307"/>
      </g>
     </g>
     <g id="text_6">
      <!-- 0 -->
      <g transform="translate(10.8275 302.735525)scale(0.1 -0.1)">
       <use xlink:href="#DejaVuSans-48"/>
      </g>
     </g>
    </g>
    <g id="ytick_2">
     <g id="line2d_7">
      <g>
       <use style="stroke:#000000;stroke-width:0.8;" x="24.19" xlink:href="#mcad1fae381" y="243.079393"/>
      </g>
     </g>
     <g id="text_7">
      <!-- 1 -->
      <g transform="translate(10.8275 246.878612)scale(0.1 -0.1)">
       <use xlink:href="#DejaVuSans-49"/>
      </g>
     </g>
    </g>
    <g id="ytick_3">
     <g id="line2d_8">
      <g>
       <use style="stroke:#000000;stroke-width:0.8;" x="24.19" xlink:href="#mcad1fae381" y="187.22248"/>
      </g>
     </g>
     <g id="text_8">
      <!-- 2 -->
      <g transform="translate(10.8275 191.021699)scale(0.1 -0.1)">
       <use xlink:href="#DejaVuSans-50"/>
      </g>
     </g>
    </g>
    <g id="ytick_4">
     <g id="line2d_9">
      <g>
       <use style="stroke:#000000;stroke-width:0.8;" x="24.19" xlink:href="#mcad1fae381" y="131.365567"/>
      </g>
     </g>
     <g id="text_9">
      <!-- 3 -->
      <g transform="translate(10.8275 135.164785)scale(0.1 -0.1)">
       <use xlink:href="#DejaVuSans-51"/>
      </g>
     </g>
    </g>
    <g id="ytick_5">
     <g id="line2d_10">
      <g>
       <use style="stroke:#000000;stroke-width:0.8;" x="24.19" xlink:href="#mcad1fae381" y="75.508653"/>
      </g>
     </g>
     <g id="text_10">
      <!-- 4 -->
      <g transform="translate(10.8275 79.307872)scale(0.1 -0.1)">
       <use xlink:href="#DejaVuSans-52"/>
      </g>
     </g>
    </g>
    <g id="text_11">
     <!-- 1e6 -->
     <defs>
      <path d="M 56.203125 29.59375 
L 56.203125 25.203125 
L 14.890625 25.203125 
Q 15.484375 15.921875 20.484375 11.0625 
Q 25.484375 6.203125 34.421875 6.203125 
Q 39.59375 6.203125 44.453125 7.46875 
Q 49.3125 8.734375 54.109375 11.28125 
L 54.109375 2.78125 
Q 49.265625 0.734375 44.1875 -0.34375 
Q 39.109375 -1.421875 33.890625 -1.421875 
Q 20.796875 -1.421875 13.15625 6.1875 
Q 5.515625 13.8125 5.515625 26.8125 
Q 5.515625 40.234375 12.765625 48.109375 
Q 20.015625 56 32.328125 56 
Q 43.359375 56 49.78125 48.890625 
Q 56.203125 41.796875 56.203125 29.59375 
z
M 47.21875 32.234375 
Q 47.125 39.59375 43.09375 43.984375 
Q 39.0625 48.390625 32.421875 48.390625 
Q 24.90625 48.390625 20.390625 44.140625 
Q 15.875 39.890625 15.1875 32.171875 
z
" id="DejaVuSans-101"/>
      <path d="M 33.015625 40.375 
Q 26.375 40.375 22.484375 35.828125 
Q 18.609375 31.296875 18.609375 23.390625 
Q 18.609375 15.53125 22.484375 10.953125 
Q 26.375 6.390625 33.015625 6.390625 
Q 39.65625 6.390625 43.53125 10.953125 
Q 47.40625 15.53125 47.40625 23.390625 
Q 47.40625 31.296875 43.53125 35.828125 
Q 39.65625 40.375 33.015625 40.375 
z
M 52.59375 71.296875 
L 52.59375 62.3125 
Q 48.875 64.0625 45.09375 64.984375 
Q 41.3125 65.921875 37.59375 65.921875 
Q 27.828125 65.921875 22.671875 59.328125 
Q 17.53125 52.734375 16.796875 39.40625 
Q 19.671875 43.65625 24.015625 45.921875 
Q 28.375 48.1875 33.59375 48.1875 
Q 44.578125 48.1875 50.953125 41.515625 
Q 57.328125 34.859375 57.328125 23.390625 
Q 57.328125 12.15625 50.6875 5.359375 
Q 44.046875 -1.421875 33.015625 -1.421875 
Q 20.359375 -1.421875 13.671875 8.265625 
Q 6.984375 17.96875 6.984375 36.375 
Q 6.984375 53.65625 15.1875 63.9375 
Q 23.390625 74.21875 37.203125 74.21875 
Q 40.921875 74.21875 44.703125 73.484375 
Q 48.484375 72.75 52.59375 71.296875 
z
" id="DejaVuSans-54"/>
     </defs>
     <g transform="translate(24.19 23.88)scale(0.1 -0.1)">
      <use xlink:href="#DejaVuSans-49"/>
      <use x="63.623047" xlink:href="#DejaVuSans-101"/>
      <use x="125.146484" xlink:href="#DejaVuSans-54"/>
     </g>
    </g>
   </g>
   <g id="line2d_11">
    <path clip-path="url(#pa9370779d1)" d="M 43.545 304.5 
L 47.455101 303.152361 
L 51.365202 301.919362 
L 55.275303 300.796621 
L 59.185404 299.779758 
L 63.095505 298.864393 
L 67.005606 298.046145 
L 70.915707 297.320633 
L 74.825808 296.683477 
L 78.735909 296.130295 
L 82.64601 295.656708 
L 86.556111 295.258334 
L 90.466212 294.930793 
L 94.376313 294.669705 
L 98.286414 294.470689 
L 102.196515 294.329363 
L 106.106616 294.241348 
L 110.016717 294.202262 
L 113.926818 294.207726 
L 117.836919 294.253358 
L 121.74702 294.334778 
L 125.657121 294.447606 
L 129.567222 294.58746 
L 133.477323 294.749959 
L 137.387424 294.930724 
L 141.297525 295.125374 
L 145.207626 295.329527 
L 149.117727 295.538804 
L 153.027828 295.748824 
L 156.937929 295.955205 
L 160.84803 296.153569 
L 164.758131 296.339532 
L 168.668232 296.508716 
L 172.578333 296.65674 
L 176.488434 296.779222 
L 180.398535 296.871782 
L 184.308636 296.93004 
L 188.218737 296.949615 
L 192.128838 296.926126 
L 196.038939 296.855192 
L 199.94904 296.732434 
L 203.859141 296.55347 
L 207.769242 296.31392 
L 211.679343 296.009402 
L 215.589444 295.635537 
L 219.499545 295.187944 
L 223.409646 294.662242 
L 227.319747 294.05405 
L 231.229848 293.358988 
L 235.139949 292.572675 
L 239.050051 291.690731 
L 242.960152 290.708775 
L 246.870253 289.622426 
L 250.780354 288.427303 
L 254.690455 287.119027 
L 258.600556 285.693216 
L 262.510657 284.145489 
L 266.420758 282.471466 
L 270.330859 280.666767 
L 274.24096 278.727011 
L 278.151061 276.647816 
L 282.061162 274.424804 
L 285.971263 272.053591 
L 289.881364 269.529799 
L 293.791465 266.849047 
L 297.701566 264.006953 
L 301.611667 260.999138 
L 305.521768 257.82122 
L 309.431869 254.468819 
L 313.34197 250.937555 
L 317.252071 247.223046 
L 321.162172 243.320912 
L 325.072273 239.226772 
L 328.982374 234.936247 
L 332.892475 230.444954 
L 336.802576 225.748513 
L 340.712677 220.842545 
L 344.622778 215.722667 
L 348.532879 210.384501 
L 352.44298 204.823663 
L 356.353081 199.035776 
L 360.263182 193.016456 
L 364.173283 186.761325 
L 368.083384 180.266001 
L 371.993485 173.526103 
L 375.903586 166.537252 
L 379.813687 159.295066 
L 383.723788 151.795164 
L 387.633889 144.033167 
L 391.54399 136.004693 
L 395.454091 127.705362 
L 399.364192 119.130793 
L 403.274293 110.276605 
L 407.184394 101.138419 
L 411.094495 91.711852 
L 415.004596 81.992525 
L 418.914697 71.976057 
L 422.824798 61.658067 
L 426.734899 51.034175 
L 430.645 40.1 
" style="fill:none;stroke:#1f77b4;stroke-dasharray:5.55,2.4;stroke-dashoffset:0;stroke-width:1.5;"/>
   </g>
   <g id="patch_3">
    <path d="M 24.19 317.72 
L 24.19 26.88 
" style="fill:none;stroke:#000000;stroke-linecap:square;stroke-linejoin:miter;stroke-width:0.8;"/>
   </g>
   <g id="patch_4">
    <path d="M 450 317.72 
L 450 26.88 
" style="fill:none;stroke:#000000;stroke-linecap:square;stroke-linejoin:miter;stroke-width:0.8;"/>
   </g>
   <g id="patch_5">
    <path d="M 24.19 317.72 
L 450 317.72 
" style="fill:none;stroke:#000000;stroke-linecap:square;stroke-linejoin:miter;stroke-width:0.8;"/>
   </g>
   <g id="patch_6">
    <path d="M 24.19 26.88 
L 450 26.88 
" style="fill:none;stroke:#000000;stroke-linecap:square;stroke-linejoin:miter;stroke-width:0.8;"/>
   </g>
   <g id="text_12">
    <!-- COVID-19 Cases Polynomial Best Fit Line -->
    <defs>
     <path d="M 64.40625 67.28125 
L 64.40625 56.890625 
Q 59.421875 61.53125 53.78125 63.8125 
Q 48.140625 66.109375 41.796875 66.109375 
Q 29.296875 66.109375 22.65625 58.46875 
Q 16.015625 50.828125 16.015625 36.375 
Q 16.015625 21.96875 22.65625 14.328125 
Q 29.296875 6.6875 41.796875 6.6875 
Q 48.140625 6.6875 53.78125 8.984375 
Q 59.421875 11.28125 64.40625 15.921875 
L 64.40625 5.609375 
Q 59.234375 2.09375 53.4375 0.328125 
Q 47.65625 -1.421875 41.21875 -1.421875 
Q 24.65625 -1.421875 15.125 8.703125 
Q 5.609375 18.84375 5.609375 36.375 
Q 5.609375 53.953125 15.125 64.078125 
Q 24.65625 74.21875 41.21875 74.21875 
Q 47.75 74.21875 53.53125 72.484375 
Q 59.328125 70.75 64.40625 67.28125 
z
" id="DejaVuSans-67"/>
     <path d="M 39.40625 66.21875 
Q 28.65625 66.21875 22.328125 58.203125 
Q 16.015625 50.203125 16.015625 36.375 
Q 16.015625 22.609375 22.328125 14.59375 
Q 28.65625 6.59375 39.40625 6.59375 
Q 50.140625 6.59375 56.421875 14.59375 
Q 62.703125 22.609375 62.703125 36.375 
Q 62.703125 50.203125 56.421875 58.203125 
Q 50.140625 66.21875 39.40625 66.21875 
z
M 39.40625 74.21875 
Q 54.734375 74.21875 63.90625 63.9375 
Q 73.09375 53.65625 73.09375 36.375 
Q 73.09375 19.140625 63.90625 8.859375 
Q 54.734375 -1.421875 39.40625 -1.421875 
Q 24.03125 -1.421875 14.8125 8.828125 
Q 5.609375 19.09375 5.609375 36.375 
Q 5.609375 53.65625 14.8125 63.9375 
Q 24.03125 74.21875 39.40625 74.21875 
z
" id="DejaVuSans-79"/>
     <path d="M 28.609375 0 
L 0.78125 72.90625 
L 11.078125 72.90625 
L 34.1875 11.53125 
L 57.328125 72.90625 
L 67.578125 72.90625 
L 39.796875 0 
z
" id="DejaVuSans-86"/>
     <path d="M 9.8125 72.90625 
L 19.671875 72.90625 
L 19.671875 0 
L 9.8125 0 
z
" id="DejaVuSans-73"/>
     <path d="M 19.671875 64.796875 
L 19.671875 8.109375 
L 31.59375 8.109375 
Q 46.6875 8.109375 53.6875 14.9375 
Q 60.6875 21.78125 60.6875 36.53125 
Q 60.6875 51.171875 53.6875 57.984375 
Q 46.6875 64.796875 31.59375 64.796875 
z
M 9.8125 72.90625 
L 30.078125 72.90625 
Q 51.265625 72.90625 61.171875 64.09375 
Q 71.09375 55.28125 71.09375 36.53125 
Q 71.09375 17.671875 61.125 8.828125 
Q 51.171875 0 30.078125 0 
L 9.8125 0 
z
" id="DejaVuSans-68"/>
     <path d="M 4.890625 31.390625 
L 31.203125 31.390625 
L 31.203125 23.390625 
L 4.890625 23.390625 
z
" id="DejaVuSans-45"/>
     <path d="M 10.984375 1.515625 
L 10.984375 10.5 
Q 14.703125 8.734375 18.5 7.8125 
Q 22.3125 6.890625 25.984375 6.890625 
Q 35.75 6.890625 40.890625 13.453125 
Q 46.046875 20.015625 46.78125 33.40625 
Q 43.953125 29.203125 39.59375 26.953125 
Q 35.25 24.703125 29.984375 24.703125 
Q 19.046875 24.703125 12.671875 31.3125 
Q 6.296875 37.9375 6.296875 49.421875 
Q 6.296875 60.640625 12.9375 67.421875 
Q 19.578125 74.21875 30.609375 74.21875 
Q 43.265625 74.21875 49.921875 64.515625 
Q 56.59375 54.828125 56.59375 36.375 
Q 56.59375 19.140625 48.40625 8.859375 
Q 40.234375 -1.421875 26.421875 -1.421875 
Q 22.703125 -1.421875 18.890625 -0.6875 
Q 15.09375 0.046875 10.984375 1.515625 
z
M 30.609375 32.421875 
Q 37.25 32.421875 41.125 36.953125 
Q 45.015625 41.5 45.015625 49.421875 
Q 45.015625 57.28125 41.125 61.84375 
Q 37.25 66.40625 30.609375 66.40625 
Q 23.96875 66.40625 20.09375 61.84375 
Q 16.21875 57.28125 16.21875 49.421875 
Q 16.21875 41.5 20.09375 36.953125 
Q 23.96875 32.421875 30.609375 32.421875 
z
" id="DejaVuSans-57"/>
     <path id="DejaVuSans-32"/>
     <path d="M 34.28125 27.484375 
Q 23.390625 27.484375 19.1875 25 
Q 14.984375 22.515625 14.984375 16.5 
Q 14.984375 11.71875 18.140625 8.90625 
Q 21.296875 6.109375 26.703125 6.109375 
Q 34.1875 6.109375 38.703125 11.40625 
Q 43.21875 16.703125 43.21875 25.484375 
L 43.21875 27.484375 
z
M 52.203125 31.203125 
L 52.203125 0 
L 43.21875 0 
L 43.21875 8.296875 
Q 40.140625 3.328125 35.546875 0.953125 
Q 30.953125 -1.421875 24.3125 -1.421875 
Q 15.921875 -1.421875 10.953125 3.296875 
Q 6 8.015625 6 15.921875 
Q 6 25.140625 12.171875 29.828125 
Q 18.359375 34.515625 30.609375 34.515625 
L 43.21875 34.515625 
L 43.21875 35.40625 
Q 43.21875 41.609375 39.140625 45 
Q 35.0625 48.390625 27.6875 48.390625 
Q 23 48.390625 18.546875 47.265625 
Q 14.109375 46.140625 10.015625 43.890625 
L 10.015625 52.203125 
Q 14.9375 54.109375 19.578125 55.046875 
Q 24.21875 56 28.609375 56 
Q 40.484375 56 46.34375 49.84375 
Q 52.203125 43.703125 52.203125 31.203125 
z
" id="DejaVuSans-97"/>
     <path d="M 44.28125 53.078125 
L 44.28125 44.578125 
Q 40.484375 46.53125 36.375 47.5 
Q 32.28125 48.484375 27.875 48.484375 
Q 21.1875 48.484375 17.84375 46.4375 
Q 14.5 44.390625 14.5 40.28125 
Q 14.5 37.15625 16.890625 35.375 
Q 19.28125 33.59375 26.515625 31.984375 
L 29.59375 31.296875 
Q 39.15625 29.25 43.1875 25.515625 
Q 47.21875 21.78125 47.21875 15.09375 
Q 47.21875 7.46875 41.1875 3.015625 
Q 35.15625 -1.421875 24.609375 -1.421875 
Q 20.21875 -1.421875 15.453125 -0.5625 
Q 10.6875 0.296875 5.421875 2 
L 5.421875 11.28125 
Q 10.40625 8.6875 15.234375 7.390625 
Q 20.0625 6.109375 24.8125 6.109375 
Q 31.15625 6.109375 34.5625 8.28125 
Q 37.984375 10.453125 37.984375 14.40625 
Q 37.984375 18.0625 35.515625 20.015625 
Q 33.0625 21.96875 24.703125 23.78125 
L 21.578125 24.515625 
Q 13.234375 26.265625 9.515625 29.90625 
Q 5.8125 33.546875 5.8125 39.890625 
Q 5.8125 47.609375 11.28125 51.796875 
Q 16.75 56 26.8125 56 
Q 31.78125 56 36.171875 55.265625 
Q 40.578125 54.546875 44.28125 53.078125 
z
" id="DejaVuSans-115"/>
     <path d="M 19.671875 64.796875 
L 19.671875 37.40625 
L 32.078125 37.40625 
Q 38.96875 37.40625 42.71875 40.96875 
Q 46.484375 44.53125 46.484375 51.125 
Q 46.484375 57.671875 42.71875 61.234375 
Q 38.96875 64.796875 32.078125 64.796875 
z
M 9.8125 72.90625 
L 32.078125 72.90625 
Q 44.34375 72.90625 50.609375 67.359375 
Q 56.890625 61.8125 56.890625 51.125 
Q 56.890625 40.328125 50.609375 34.8125 
Q 44.34375 29.296875 32.078125 29.296875 
L 19.671875 29.296875 
L 19.671875 0 
L 9.8125 0 
z
" id="DejaVuSans-80"/>
     <path d="M 30.609375 48.390625 
Q 23.390625 48.390625 19.1875 42.75 
Q 14.984375 37.109375 14.984375 27.296875 
Q 14.984375 17.484375 19.15625 11.84375 
Q 23.34375 6.203125 30.609375 6.203125 
Q 37.796875 6.203125 41.984375 11.859375 
Q 46.1875 17.53125 46.1875 27.296875 
Q 46.1875 37.015625 41.984375 42.703125 
Q 37.796875 48.390625 30.609375 48.390625 
z
M 30.609375 56 
Q 42.328125 56 49.015625 48.375 
Q 55.71875 40.765625 55.71875 27.296875 
Q 55.71875 13.875 49.015625 6.21875 
Q 42.328125 -1.421875 30.609375 -1.421875 
Q 18.84375 -1.421875 12.171875 6.21875 
Q 5.515625 13.875 5.515625 27.296875 
Q 5.515625 40.765625 12.171875 48.375 
Q 18.84375 56 30.609375 56 
z
" id="DejaVuSans-111"/>
     <path d="M 9.421875 75.984375 
L 18.40625 75.984375 
L 18.40625 0 
L 9.421875 0 
z
" id="DejaVuSans-108"/>
     <path d="M 32.171875 -5.078125 
Q 28.375 -14.84375 24.75 -17.8125 
Q 21.140625 -20.796875 15.09375 -20.796875 
L 7.90625 -20.796875 
L 7.90625 -13.28125 
L 13.1875 -13.28125 
Q 16.890625 -13.28125 18.9375 -11.515625 
Q 21 -9.765625 23.484375 -3.21875 
L 25.09375 0.875 
L 2.984375 54.6875 
L 12.5 54.6875 
L 29.59375 11.921875 
L 46.6875 54.6875 
L 56.203125 54.6875 
z
" id="DejaVuSans-121"/>
     <path d="M 54.890625 33.015625 
L 54.890625 0 
L 45.90625 0 
L 45.90625 32.71875 
Q 45.90625 40.484375 42.875 44.328125 
Q 39.84375 48.1875 33.796875 48.1875 
Q 26.515625 48.1875 22.3125 43.546875 
Q 18.109375 38.921875 18.109375 30.90625 
L 18.109375 0 
L 9.078125 0 
L 9.078125 54.6875 
L 18.109375 54.6875 
L 18.109375 46.1875 
Q 21.34375 51.125 25.703125 53.5625 
Q 30.078125 56 35.796875 56 
Q 45.21875 56 50.046875 50.171875 
Q 54.890625 44.34375 54.890625 33.015625 
z
" id="DejaVuSans-110"/>
     <path d="M 52 44.1875 
Q 55.375 50.25 60.0625 53.125 
Q 64.75 56 71.09375 56 
Q 79.640625 56 84.28125 50.015625 
Q 88.921875 44.046875 88.921875 33.015625 
L 88.921875 0 
L 79.890625 0 
L 79.890625 32.71875 
Q 79.890625 40.578125 77.09375 44.375 
Q 74.3125 48.1875 68.609375 48.1875 
Q 61.625 48.1875 57.5625 43.546875 
Q 53.515625 38.921875 53.515625 30.90625 
L 53.515625 0 
L 44.484375 0 
L 44.484375 32.71875 
Q 44.484375 40.625 41.703125 44.40625 
Q 38.921875 48.1875 33.109375 48.1875 
Q 26.21875 48.1875 22.15625 43.53125 
Q 18.109375 38.875 18.109375 30.90625 
L 18.109375 0 
L 9.078125 0 
L 9.078125 54.6875 
L 18.109375 54.6875 
L 18.109375 46.1875 
Q 21.1875 51.21875 25.484375 53.609375 
Q 29.78125 56 35.6875 56 
Q 41.65625 56 45.828125 52.96875 
Q 50 49.953125 52 44.1875 
z
" id="DejaVuSans-109"/>
     <path d="M 9.421875 54.6875 
L 18.40625 54.6875 
L 18.40625 0 
L 9.421875 0 
z
M 9.421875 75.984375 
L 18.40625 75.984375 
L 18.40625 64.59375 
L 9.421875 64.59375 
z
" id="DejaVuSans-105"/>
     <path d="M 19.671875 34.8125 
L 19.671875 8.109375 
L 35.5 8.109375 
Q 43.453125 8.109375 47.28125 11.40625 
Q 51.125 14.703125 51.125 21.484375 
Q 51.125 28.328125 47.28125 31.5625 
Q 43.453125 34.8125 35.5 34.8125 
z
M 19.671875 64.796875 
L 19.671875 42.828125 
L 34.28125 42.828125 
Q 41.5 42.828125 45.03125 45.53125 
Q 48.578125 48.25 48.578125 53.8125 
Q 48.578125 59.328125 45.03125 62.0625 
Q 41.5 64.796875 34.28125 64.796875 
z
M 9.8125 72.90625 
L 35.015625 72.90625 
Q 46.296875 72.90625 52.390625 68.21875 
Q 58.5 63.53125 58.5 54.890625 
Q 58.5 48.1875 55.375 44.234375 
Q 52.25 40.28125 46.1875 39.3125 
Q 53.46875 37.75 57.5 32.78125 
Q 61.53125 27.828125 61.53125 20.40625 
Q 61.53125 10.640625 54.890625 5.3125 
Q 48.25 0 35.984375 0 
L 9.8125 0 
z
" id="DejaVuSans-66"/>
     <path d="M 18.3125 70.21875 
L 18.3125 54.6875 
L 36.8125 54.6875 
L 36.8125 47.703125 
L 18.3125 47.703125 
L 18.3125 18.015625 
Q 18.3125 11.328125 20.140625 9.421875 
Q 21.96875 7.515625 27.59375 7.515625 
L 36.8125 7.515625 
L 36.8125 0 
L 27.59375 0 
Q 17.1875 0 13.234375 3.875 
Q 9.28125 7.765625 9.28125 18.015625 
L 9.28125 47.703125 
L 2.6875 47.703125 
L 2.6875 54.6875 
L 9.28125 54.6875 
L 9.28125 70.21875 
z
" id="DejaVuSans-116"/>
     <path d="M 9.8125 72.90625 
L 51.703125 72.90625 
L 51.703125 64.59375 
L 19.671875 64.59375 
L 19.671875 43.109375 
L 48.578125 43.109375 
L 48.578125 34.8125 
L 19.671875 34.8125 
L 19.671875 0 
L 9.8125 0 
z
" id="DejaVuSans-70"/>
     <path d="M 9.8125 72.90625 
L 19.671875 72.90625 
L 19.671875 8.296875 
L 55.171875 8.296875 
L 55.171875 0 
L 9.8125 0 
z
" id="DejaVuSans-76"/>
    </defs>
    <g transform="translate(115.205 20.88)scale(0.12 -0.12)">
     <use xlink:href="#DejaVuSans-67"/>
     <use x="69.824219" xlink:href="#DejaVuSans-79"/>
     <use x="146.785156" xlink:href="#DejaVuSans-86"/>
     <use x="215.193359" xlink:href="#DejaVuSans-73"/>
     <use x="244.685547" xlink:href="#DejaVuSans-68"/>
     <use x="321.6875" xlink:href="#DejaVuSans-45"/>
     <use x="357.771484" xlink:href="#DejaVuSans-49"/>
     <use x="421.394531" xlink:href="#DejaVuSans-57"/>
     <use x="485.017578" xlink:href="#DejaVuSans-32"/>
     <use x="516.804688" xlink:href="#DejaVuSans-67"/>
     <use x="586.628906" xlink:href="#DejaVuSans-97"/>
     <use x="647.908203" xlink:href="#DejaVuSans-115"/>
     <use x="700.007812" xlink:href="#DejaVuSans-101"/>
     <use x="761.53125" xlink:href="#DejaVuSans-115"/>
     <use x="813.630859" xlink:href="#DejaVuSans-32"/>
     <use x="845.417969" xlink:href="#DejaVuSans-80"/>
     <use x="902.095703" xlink:href="#DejaVuSans-111"/>
     <use x="963.277344" xlink:href="#DejaVuSans-108"/>
     <use x="991.060547" xlink:href="#DejaVuSans-121"/>
     <use x="1050.240234" xlink:href="#DejaVuSans-110"/>
     <use x="1113.619141" xlink:href="#DejaVuSans-111"/>
     <use x="1174.800781" xlink:href="#DejaVuSans-109"/>
     <use x="1272.212891" xlink:href="#DejaVuSans-105"/>
     <use x="1299.996094" xlink:href="#DejaVuSans-97"/>
     <use x="1361.275391" xlink:href="#DejaVuSans-108"/>
     <use x="1389.058594" xlink:href="#DejaVuSans-32"/>
     <use x="1420.845703" xlink:href="#DejaVuSans-66"/>
     <use x="1489.449219" xlink:href="#DejaVuSans-101"/>
     <use x="1550.972656" xlink:href="#DejaVuSans-115"/>
     <use x="1603.072266" xlink:href="#DejaVuSans-116"/>
     <use x="1642.28125" xlink:href="#DejaVuSans-32"/>
     <use x="1674.068359" xlink:href="#DejaVuSans-70"/>
     <use x="1724.337891" xlink:href="#DejaVuSans-105"/>
     <use x="1752.121094" xlink:href="#DejaVuSans-116"/>
     <use x="1791.330078" xlink:href="#DejaVuSans-32"/>
     <use x="1823.117188" xlink:href="#DejaVuSans-76"/>
     <use x="1878.830078" xlink:href="#DejaVuSans-105"/>
     <use x="1906.613281" xlink:href="#DejaVuSans-110"/>
     <use x="1969.992188" xlink:href="#DejaVuSans-101"/>
    </g>
   </g>
   <g id="legend_1">
    <g id="patch_7">
     <path d="M 31.19 64.23625 
L 119.443125 64.23625 
Q 121.443125 64.23625 121.443125 62.23625 
L 121.443125 33.88 
Q 121.443125 31.88 119.443125 31.88 
L 31.19 31.88 
Q 29.19 31.88 29.19 33.88 
L 29.19 62.23625 
Q 29.19 64.23625 31.19 64.23625 
z
" style="fill:#ffffff;opacity:0.8;stroke:#cccccc;stroke-linejoin:miter;"/>
    </g>
    <g id="line2d_12">
     <path d="M 33.19 39.978437 
L 53.19 39.978437 
" style="fill:none;stroke:#1f77b4;stroke-dasharray:5.55,2.4;stroke-dashoffset:0;stroke-width:1.5;"/>
    </g>
    <g id="line2d_13"/>
    <g id="text_13">
     <!-- best fit line -->
     <defs>
      <path d="M 48.6875 27.296875 
Q 48.6875 37.203125 44.609375 42.84375 
Q 40.53125 48.484375 33.40625 48.484375 
Q 26.265625 48.484375 22.1875 42.84375 
Q 18.109375 37.203125 18.109375 27.296875 
Q 18.109375 17.390625 22.1875 11.75 
Q 26.265625 6.109375 33.40625 6.109375 
Q 40.53125 6.109375 44.609375 11.75 
Q 48.6875 17.390625 48.6875 27.296875 
z
M 18.109375 46.390625 
Q 20.953125 51.265625 25.265625 53.625 
Q 29.59375 56 35.59375 56 
Q 45.5625 56 51.78125 48.09375 
Q 58.015625 40.1875 58.015625 27.296875 
Q 58.015625 14.40625 51.78125 6.484375 
Q 45.5625 -1.421875 35.59375 -1.421875 
Q 29.59375 -1.421875 25.265625 0.953125 
Q 20.953125 3.328125 18.109375 8.203125 
L 18.109375 0 
L 9.078125 0 
L 9.078125 75.984375 
L 18.109375 75.984375 
z
" id="DejaVuSans-98"/>
      <path d="M 37.109375 75.984375 
L 37.109375 68.5 
L 28.515625 68.5 
Q 23.6875 68.5 21.796875 66.546875 
Q 19.921875 64.59375 19.921875 59.515625 
L 19.921875 54.6875 
L 34.71875 54.6875 
L 34.71875 47.703125 
L 19.921875 47.703125 
L 19.921875 0 
L 10.890625 0 
L 10.890625 47.703125 
L 2.296875 47.703125 
L 2.296875 54.6875 
L 10.890625 54.6875 
L 10.890625 58.5 
Q 10.890625 67.625 15.140625 71.796875 
Q 19.390625 75.984375 28.609375 75.984375 
z
" id="DejaVuSans-102"/>
     </defs>
     <g transform="translate(61.19 43.478437)scale(0.1 -0.1)">
      <use xlink:href="#DejaVuSans-98"/>
      <use x="63.476562" xlink:href="#DejaVuSans-101"/>
      <use x="125" xlink:href="#DejaVuSans-115"/>
      <use x="177.099609" xlink:href="#DejaVuSans-116"/>
      <use x="216.308594" xlink:href="#DejaVuSans-32"/>
      <use x="248.095703" xlink:href="#DejaVuSans-102"/>
      <use x="283.300781" xlink:href="#DejaVuSans-105"/>
      <use x="311.083984" xlink:href="#DejaVuSans-116"/>
      <use x="350.292969" xlink:href="#DejaVuSans-32"/>
      <use x="382.080078" xlink:href="#DejaVuSans-108"/>
      <use x="409.863281" xlink:href="#DejaVuSans-105"/>
      <use x="437.646484" xlink:href="#DejaVuSans-110"/>
      <use x="501.025391" xlink:href="#DejaVuSans-101"/>
     </g>
    </g>
    <g id="PathCollection_2">
     <g>
      <use style="fill:#ff0000;stroke:#ff0000;" x="43.19" xlink:href="#mfaae4fea7f" y="55.531563"/>
     </g>
    </g>
    <g id="text_14">
     <!-- Cases -->
     <g transform="translate(61.19 58.156563)scale(0.1 -0.1)">
      <use xlink:href="#DejaVuSans-67"/>
      <use x="69.824219" xlink:href="#DejaVuSans-97"/>
      <use x="131.103516" xlink:href="#DejaVuSans-115"/>
      <use x="183.203125" xlink:href="#DejaVuSans-101"/>
      <use x="244.726562" xlink:href="#DejaVuSans-115"/>
     </g>
    </g>
   </g>
  </g>
 </g>
 <defs>
  <clipPath id="pa9370779d1">
   <rect height="290.84" width="425.81" x="24.19" y="26.88"/>
  </clipPath>
 </defs>
</svg>
